<?xml version="1.0" encoding="UTF-8" standalone="no"?>
<!-- Created with Inkscape (http://www.inkscape.org/) -->

<svg
   xmlns:dc="http://purl.org/dc/elements/1.1/"
   xmlns:cc="http://creativecommons.org/ns#"
   xmlns:rdf="http://www.w3.org/1999/02/22-rdf-syntax-ns#"
   xmlns:svg="http://www.w3.org/2000/svg"
   xmlns="http://www.w3.org/2000/svg"
   xmlns:sodipodi="http://sodipodi.sourceforge.net/DTD/sodipodi-0.dtd"
   xmlns:inkscape="http://www.inkscape.org/namespaces/inkscape"
   version="1.1"
   id="svg2"
   xml:space="preserve"
   width="1630.3096"
   height="224.23093"
   viewBox="0 0 1630.3095 224.23094"
   sodipodi:docname="Bande final.svg"
   inkscape:version="0.92.1 r15371"><metadata
     id="metadata8"><rdf:RDF><cc:Work
         rdf:about=""><dc:format>image/svg+xml</dc:format><dc:type
           rdf:resource="http://purl.org/dc/dcmitype/StillImage" /></cc:Work></rdf:RDF></metadata><defs
     id="defs6"><clipPath
       clipPathUnits="userSpaceOnUse"
       id="clipPath18"><path
         d="M 0,405 H 1349.131 V 0 H 0 Z"
         id="path16"
         inkscape:connector-curvature="0" /></clipPath></defs><sodipodi:namedview
     pagecolor="#ffffff"
     bordercolor="#666666"
     borderopacity="1"
     objecttolerance="10"
     gridtolerance="10"
     guidetolerance="10"
     inkscape:pageopacity="0"
     inkscape:pageshadow="2"
     inkscape:window-width="1920"
     inkscape:window-height="1017"
     id="namedview4"
     showgrid="false"
     inkscape:zoom="0.50476975"
     inkscape:cx="665.65324"
     inkscape:cy="-174.55729"
     inkscape:window-x="-8"
     inkscape:window-y="-8"
     inkscape:window-maximized="1"
     inkscape:current-layer="g10" /><g
     id="g10"
     inkscape:groupmode="layer"
     inkscape:label="PROTO-SHIELD_HEADBAND_V1-3 test"
     transform="matrix(1.3333333,0,0,-1.3333333,-844.69837,740.42129)"><g
       id="g4843"><path
         inkscape:connector-curvature="0"
         id="path4798"
         d="M 1446.6084,459.64278 H 1170.9876"
         style="fill:none;stroke:#00ffff;stroke-width:1;stroke-linecap:butt;stroke-linejoin:miter;stroke-miterlimit:10;stroke-dasharray:none;stroke-opacity:1" /><path
         inkscape:connector-curvature="0"
         id="path4812"
         d="m 1170.9876,459.64278 h -253.15346 -25.365 -33.4454 c -4.971,0 -9,-4.029 -9,-9 v -54 c 0,-4.971 4.029,-9 9,-9 h 33.4454 25.365 243.49566"
         style="fill:none;stroke:#00ff00;stroke-width:1;stroke-linecap:butt;stroke-linejoin:miter;stroke-miterlimit:10;stroke-dasharray:none;stroke-opacity:1" /><path
         inkscape:connector-curvature="0"
         id="path4810"
         d="m 1161.3298,387.64278 h 286.0215"
         style="fill:none;stroke:#0000ff;stroke-width:1;stroke-linecap:butt;stroke-linejoin:miter;stroke-miterlimit:10;stroke-dasharray:none;stroke-opacity:1" /><path
         inkscape:connector-curvature="0"
         id="path22"
         d="m 1447.3513,387.64278 h 241.3817 36.002 122.021 c 4.972,0 9,4.029 9,9 v 54 c 0,4.971 -4.028,9 -9,9 h -122.021 -36.002 -242.1246"
         style="fill:none;stroke:#00ff00;stroke-width:1;stroke-linecap:butt;stroke-linejoin:miter;stroke-miterlimit:10;stroke-dasharray:none;stroke-opacity:1" /><path
         inkscape:connector-curvature="0"
         id="path24"
         style="fill:none;stroke:#00ffff;stroke-width:1;stroke-linecap:butt;stroke-linejoin:miter;stroke-miterlimit:10;stroke-dasharray:none;stroke-opacity:1"
         d="m 1833.2556,446.14268 h 4.5 v -45 h -4.5 z" /><path
         inkscape:connector-curvature="0"
         id="path34"
         style="fill:none;stroke:#00ffff;stroke-width:1;stroke-linecap:butt;stroke-linejoin:miter;stroke-miterlimit:10;stroke-dasharray:none;stroke-opacity:1"
         d="m 868.02334,446.14268 h 4.5 v -45 h -4.5 z" /><path
         d="m 1606.7063,423.64278 c 0,9.94 -8.059,18 -18,18 -9.941,0 -18,-8.06 -18,-18 0,-9.94 8.059,-18 18,-18 9.941,0 18,8.06 18,18 z"
         style="fill:none;stroke:#ff0000;stroke-width:1;stroke-linecap:butt;stroke-linejoin:miter;stroke-miterlimit:10;stroke-dasharray:none;stroke-opacity:1"
         id="path38"
         inkscape:connector-curvature="0" /><path
         d="m 1559.5432,423.64278 c 0,9.94 -8.059,18 -18,18 -9.94,0 -18,-8.06 -18,-18 0,-9.94 8.06,-18 18,-18 9.941,0 18,8.06 18,18 z"
         style="fill:none;stroke:#ffff00;stroke-width:1;stroke-linecap:butt;stroke-linejoin:miter;stroke-miterlimit:10;stroke-dasharray:none;stroke-opacity:1"
         id="path42"
         inkscape:connector-curvature="0" /><path
         d="m 1512.3811,423.64278 c 0,9.94 -8.059,18 -18,18 -9.94,0 -18,-8.06 -18,-18 0,-9.94 8.06,-18 18,-18 9.941,0 18,8.06 18,18 z"
         style="fill:none;stroke:#ff0000;stroke-width:1;stroke-linecap:butt;stroke-linejoin:miter;stroke-miterlimit:10;stroke-dasharray:none;stroke-opacity:1"
         id="path46"
         inkscape:connector-curvature="0" /><path
         d="m 1465.217,423.64278 c 0,9.94 -8.058,18 -17.999,18 -9.941,0 -18,-8.06 -18,-18 0,-9.94 8.059,-18 18,-18 9.941,0 17.999,8.06 17.999,18 z"
         style="fill:none;stroke:#ffff00;stroke-width:1;stroke-linecap:butt;stroke-linejoin:miter;stroke-miterlimit:10;stroke-dasharray:none;stroke-opacity:1"
         id="path50"
         inkscape:connector-curvature="0" /><path
         d="m 1418.0559,423.64278 c 0,9.94 -8.059,18 -18,18 -9.941,0 -18,-8.06 -18,-18 0,-9.94 8.059,-18 18,-18 9.941,0 18,8.06 18,18 z"
         style="fill:none;stroke:#ff0000;stroke-width:1;stroke-linecap:butt;stroke-linejoin:miter;stroke-miterlimit:10;stroke-dasharray:none;stroke-opacity:1"
         id="path54"
         inkscape:connector-curvature="0" /><path
         d="m 1370.8938,423.64278 c 0,9.94 -8.059,18 -18,18 -9.941,0 -18,-8.06 -18,-18 0,-9.94 8.059,-18 18,-18 9.941,0 18,8.06 18,18 z"
         style="fill:none;stroke:#ffff00;stroke-width:1;stroke-linecap:butt;stroke-linejoin:miter;stroke-miterlimit:10;stroke-dasharray:none;stroke-opacity:1"
         id="path58"
         inkscape:connector-curvature="0" /><path
         d="m 1323.7297,423.64278 c 0,9.94 -8.059,18 -18,18 -9.941,0 -18,-8.06 -18,-18 0,-9.94 8.059,-18 18,-18 9.941,0 18,8.06 18,18 z"
         style="fill:none;stroke:#ff0000;stroke-width:1;stroke-linecap:butt;stroke-linejoin:miter;stroke-miterlimit:10;stroke-dasharray:none;stroke-opacity:1"
         id="path62"
         inkscape:connector-curvature="0" /><path
         d="m 1276.5676,423.64278 c 0,9.94 -8.059,18 -18,18 -9.945,0 -18.007,-8.06 -18.007,-18 0,-9.94 8.062,-18 18.007,-18 9.941,0 18,8.06 18,18 z"
         style="fill:none;stroke:#ffff00;stroke-width:1;stroke-linecap:butt;stroke-linejoin:miter;stroke-miterlimit:10;stroke-dasharray:none;stroke-opacity:1"
         id="path66"
         inkscape:connector-curvature="0" /><path
         d="m 1229.3987,423.64278 c 0,9.94 -8.059,18 -17.999,18 -9.941,0 -18,-8.06 -18,-18 0,-9.94 8.059,-18 18,-18 9.94,0 17.999,8.06 17.999,18 z"
         style="fill:none;stroke:#ff0000;stroke-width:1;stroke-linecap:butt;stroke-linejoin:miter;stroke-miterlimit:10;stroke-dasharray:none;stroke-opacity:1"
         id="path70"
         inkscape:connector-curvature="0" /><path
         d="m 1182.2356,423.64278 c 0,9.94 -8.059,18 -18,18 -9.941,0 -18,-8.06 -18,-18 0,-9.94 8.059,-18 18,-18 9.941,0 18,8.06 18,18 z"
         style="fill:none;stroke:#ffff00;stroke-width:1;stroke-linecap:butt;stroke-linejoin:miter;stroke-miterlimit:10;stroke-dasharray:none;stroke-opacity:1"
         id="path74"
         inkscape:connector-curvature="0" /><path
         d="m 1135.0735,423.64278 c 0,9.94 -8.059,18 -18,18 -9.941,0 -18,-8.06 -18,-18 0,-9.94 8.059,-18 18,-18 9.941,0 18,8.06 18,18 z"
         style="fill:none;stroke:#ff0000;stroke-width:1;stroke-linecap:butt;stroke-linejoin:miter;stroke-miterlimit:10;stroke-dasharray:none;stroke-opacity:1"
         id="path78"
         inkscape:connector-curvature="0" /><path
         inkscape:connector-curvature="0"
         id="path4806"
         d="M 1402.0336,554.81598 H 933.99838"
         style="fill:none;stroke:#00ffff;stroke-width:1;stroke-linecap:butt;stroke-linejoin:miter;stroke-miterlimit:10;stroke-dasharray:none;stroke-opacity:1" /><path
         inkscape:connector-curvature="0"
         id="path4804"
         d="m 933.99838,554.81598 h -230.51529 -24.004 -14.7874 -16.6679 -5 c -4.971,0 -9,-4.029 -9,-9 v -54 c 0,-4.971 4.029,-9 9,-9 h 5 16.6679 14.7874 24.004 230.14384"
         style="fill:none;stroke:#00ff00;stroke-width:1;stroke-linecap:butt;stroke-linejoin:miter;stroke-miterlimit:10;stroke-dasharray:none;stroke-opacity:1" /><path
         inkscape:connector-curvature="0"
         id="path4802"
         d="M 933.62693,482.81598 H 1403.5194"
         style="fill:none;stroke:#0000ff;stroke-width:1;stroke-linecap:butt;stroke-linejoin:miter;stroke-miterlimit:10;stroke-dasharray:none;stroke-opacity:1" /><path
         inkscape:connector-curvature="0"
         id="path82"
         d="m 1403.5194,482.81598 h 295.3606 25.855 105.688 12.666 3.667 c 4.971,0 9,4.029 9,9 v 54 c 0,4.971 -4.029,9 -9,9 h -3.667 -12.666 -105.688 -25.855 -296.8464"
         style="fill:none;stroke:#00ff00;stroke-width:1;stroke-linecap:butt;stroke-linejoin:miter;stroke-miterlimit:10;stroke-dasharray:none;stroke-opacity:1" /><path
         d="m 943.62818,527.05038 h -1.4 -10.815 -4.217 c -0.605,0.412 -1.26301,0.645 -1.95501,0.645 -2.883,0 -5.22199,-3.955 -5.22199,-8.83 0,-4.875 2.339,-8.82799 5.22199,-8.82799 0.692,0 1.35001,0.23299 1.95501,0.64599 h 0.75 14.282 1.4"
         style="fill:none;stroke:#ff0000;stroke-width:1;stroke-linecap:butt;stroke-linejoin:miter;stroke-miterlimit:10;stroke-dasharray:none;stroke-opacity:1"
         id="path94"
         inkscape:connector-curvature="0" /><path
         d="m 1149.0794,531.92728 v -4.555 -13.394 -1.43 c -0.68,-0.934 -1.07,-1.975 -1.07,-3.074 0,-4.028 5.095,-7.297 11.381,-7.297 6.287,0 11.382,3.269 11.382,7.297 0,1.1 -0.39,2.14 -1.07,3.074 v 1.43 13.394 4.555"
         style="fill:none;stroke:#ff0000;stroke-width:1;stroke-linecap:butt;stroke-linejoin:miter;stroke-miterlimit:10;stroke-dasharray:none;stroke-opacity:1"
         id="path106"
         inkscape:connector-curvature="0" /><path
         d="m 1320.0784,531.92728 v -4.555 -13.394 -1.43 c -0.68,-0.934 -1.07,-1.975 -1.07,-3.074 0,-4.028 5.096,-7.297 11.382,-7.297 6.286,0 11.382,3.269 11.382,7.297 0,1.1 -0.39,2.14 -1.07,3.074 v 1.43 13.394 4.555"
         style="fill:none;stroke:#ff0000;stroke-width:1;stroke-linecap:butt;stroke-linejoin:miter;stroke-miterlimit:10;stroke-dasharray:none;stroke-opacity:1"
         id="path110"
         inkscape:connector-curvature="0" /><path
         d="m 1546.1477,510.68218 h 1.4 10.816 4.218 c 0.602,-0.412 1.26,-0.645 1.952,-0.645 2.884,0 5.222,3.954 5.222,8.829 0,4.877 -2.338,8.83 -5.222,8.83 -0.692,0 -1.35,-0.234 -1.954,-0.646 h -0.75 -14.282 -1.4"
         style="fill:none;stroke:#ff0000;stroke-width:1;stroke-linecap:butt;stroke-linejoin:miter;stroke-miterlimit:10;stroke-dasharray:none;stroke-opacity:1"
         id="path114"
         inkscape:connector-curvature="0" /><path
         sodipodi:nodetypes="cccccccsccccccc"
         d="m 1804.0072,508.55478 h 8.554 12.395 l -0.125,-0.281 -3,-13.71 h 9.928 v 13.11101 c 3.408,0.958 5.998,5.59899 5.998,11.192 0,5.592 -2.59,10.23399 -5.998,11.192 v 13.111 h -9.928 l 3,-13.71 0.125,-0.281 h -12.395 -8.554"
         style="fill:none;stroke:#ff0000;stroke-width:1;stroke-linecap:butt;stroke-linejoin:miter;stroke-miterlimit:10;stroke-dasharray:none;stroke-opacity:1"
         id="path122"
         inkscape:connector-curvature="0" /><path
         sodipodi:nodetypes="cccccccsccccccc"
         d="m 685.77349,508.55478 h -8.554 -12.395 l 0.124,-0.28099 3,-13.71001 h -9.928 v 13.11101 c -3.407,0.958 -5.99701,5.599 -5.99701,11.192 0,5.593 2.59,10.234 5.99701,11.192 v 13.111 h 9.928 l -3,-13.71 -0.124,-0.281 h 12.395 8.554"
         style="fill:none;stroke:#ff0000;stroke-width:1;stroke-linecap:butt;stroke-linejoin:miter;stroke-miterlimit:10;stroke-dasharray:none;stroke-opacity:1"
         id="path126"
         inkscape:connector-curvature="0" /><path
         inkscape:connector-curvature="0"
         id="path4780"
         style="fill:none;stroke:#ff0000;stroke-width:1;stroke-linecap:butt;stroke-linejoin:miter;stroke-miterlimit:10;stroke-dasharray:none;stroke-opacity:1"
         d="m 816.06913,527.05038 h -1.4 -10.815 -4.217 c -0.605,0.41201 -1.263,0.645 -1.955,0.645 -2.883,0 -5.222,-3.95499 -5.222,-8.82999 0,-4.875 2.339,-8.828 5.222,-8.828 0.692,0 1.35,0.23299 1.955,0.64599 h 0.75 14.282 1.4"
         sodipodi:nodetypes="ccccssscccc" /><path
         inkscape:connector-curvature="0"
         id="path4794"
         style="fill:none;stroke:#ff0000;stroke-width:1;stroke-linecap:butt;stroke-linejoin:miter;stroke-miterlimit:10;stroke-dasharray:none;stroke-opacity:1"
         d="m 1673.7067,510.68218 h 1.4 10.816 4.218 c 0.602,-0.412 1.26,-0.645 1.952,-0.645 2.884,0 5.222,3.954 5.222,8.829 0,4.877 -2.338,8.83 -5.222,8.83 -0.692,0 -1.35,-0.234 -1.954,-0.646 h -0.75 -14.282 -1.4"
         sodipodi:nodetypes="ccccssscccc" /></g></g></svg>