<?xml version="1.0" encoding="UTF-8" standalone="no"?>
<!-- Generator: Adobe Illustrator 24.1.0, SVG Export Plug-In . SVG Version: 6.00 Build 0)  -->

<svg
   xmlns:dc="http://purl.org/dc/elements/1.1/"
   xmlns:cc="http://creativecommons.org/ns#"
   xmlns:rdf="http://www.w3.org/1999/02/22-rdf-syntax-ns#"
   xmlns:svg="http://www.w3.org/2000/svg"
   xmlns="http://www.w3.org/2000/svg"
   xmlns:sodipodi="http://sodipodi.sourceforge.net/DTD/sodipodi-0.dtd"
   xmlns:inkscape="http://www.inkscape.org/namespaces/inkscape"
   version="1.1"
   id="Layer_1"
   x="0px"
   y="0px"
   viewBox="0 0 2223.6193 1552.9312"
   xml:space="preserve"
   sodipodi:docname="Speedy300settup1.svg"
   width="23.162701in"
   height="16.176367in"
   inkscape:version="0.92.1 r15371"><metadata
   id="metadata296"><rdf:RDF><cc:Work
       rdf:about=""><dc:format>image/svg+xml</dc:format><dc:type
         rdf:resource="http://purl.org/dc/dcmitype/StillImage" /><dc:title></dc:title></cc:Work></rdf:RDF></metadata><defs
   id="defs294">
	
	
	
	
	
	
	
	
	
	
	
	

	
	
	
	
	
	
	
	
	
	
	
	

	
	
	
	
	
	
	
	
	
	
	
	

	
	
	
	
	
	
	
	
	
	
	
	

	
	
	
	
	
	
	
	
	
	
	
	

	
	
	
	
	
	
	
	
	
	
	
	

	
	
	
	
	
	
	
	
	
	
	

	
	
	
	
	
	
	
	
	
	
	

	
	
	
	
	
	
	
	
	
	
	

	
	
	
	
	
	
	
	
	
	
	

	
	
	
	
	
	
	
	
	
	
	

	
	
	
	
	
	
	
	
	
	
	

	
	
	
	
	
	
	
	
	
	
	

	
	
	
	
	
	
	
	
	
	
	

	
	
	
	
	
	
	
	
	
	
	

	
	
	
	
	
	
	
	
	
	
	

	
	
	
	
	
	
	
	
	
	
	
	

	
	
	
	
	
	
	
	
	
	
	
	

	
	
	
	
	
	
	
	
	
	
	
	

	
	
	
	
	
	
	
	
	
	
	
	

	
	
	
	
	
	
	
	
	
	
	
	

	
	
	
	
	
	
	
	
	
	
	
	
</defs><sodipodi:namedview
   pagecolor="#ffffff"
   bordercolor="#666666"
   borderopacity="1"
   objecttolerance="10"
   gridtolerance="10"
   guidetolerance="10"
   inkscape:pageopacity="0"
   inkscape:pageshadow="2"
   inkscape:window-width="1920"
   inkscape:window-height="1017"
   id="namedview292"
   showgrid="false"
   inkscape:zoom="0.31365741"
   inkscape:cx="888.71835"
   inkscape:cy="948.07753"
   inkscape:window-x="-8"
   inkscape:window-y="-8"
   inkscape:window-maximized="1"
   inkscape:current-layer="Layer_1"
   inkscape:measure-start="0.797048,1504.83"
   inkscape:measure-end="1059.28,1504.83"
   showguides="false"
   units="in" />
<style
   type="text/css"
   id="style2">
	.st0{fill:none;stroke:#70CDDD;stroke-width:1.3333;stroke-miterlimit:13.3333;}
	.st1{fill:none;stroke:#6ABD45;stroke-width:1.3333;stroke-miterlimit:13.3333;}
	.st2{fill:none;stroke:#3A53A4;stroke-width:1.3333;stroke-miterlimit:13.3333;}
	.st3{fill:none;stroke:#ED2224;stroke-width:1.3333;stroke-miterlimit:13.3333;}
</style>
<path
   style="fill:none;stroke:#00ffee;stroke-width:1.77630734;stroke-miterlimit:13.33329964;stroke-opacity:1"
   inkscape:connector-curvature="0"
   d="M 792.05301,1074.6396 H 426.53312"
   class="st0"
   id="path4798" /><path
   style="fill:none;stroke:#00ff00;stroke-width:1.77630734;stroke-miterlimit:13.33329964;stroke-opacity:1"
   inkscape:connector-curvature="0"
   d="M 426.53312,1074.6396 H 90.81596 57.189621 12.825237 c -6.5947055,0 -11.93708333,5.3424 -11.93708333,11.9371 v 71.6092 c 0,6.5947 5.34237783,11.9371 11.93708333,11.9371 h 44.351062 33.639661 322.9141"
   class="st1"
   id="path4812" /><path
   style="fill:none;stroke:#0000ff;stroke-width:1.77630734;stroke-miterlimit:13.33329964;stroke-opacity:1"
   inkscape:connector-curvature="0"
   d="M 413.73006,1170.1096 H 793.03889"
   class="st2"
   id="path4810" /><path
   style="fill:none;stroke:#00ff00;stroke-width:1.77630734;stroke-miterlimit:13.33329964;stroke-opacity:1"
   inkscape:connector-curvature="0"
   d="m 793.02556,1170.1096 h 320.10304 47.7483 161.8168 c 6.5947,0 11.9371,-5.3423 11.9371,-11.937 v -71.6092 c 0,-6.5947 -5.3424,-11.9371 -11.9371,-11.9371 h -161.8168 -47.7483 -321.07559"
   class="st1"
   id="path22" /><path
   style="fill:none;stroke:#00ffee;stroke-width:1.77630734;stroke-miterlimit:13.33329964;stroke-opacity:1"
   inkscape:connector-curvature="0"
   d="m 1304.7881,1096.3114 h 5.9685 v 52.1131 h -5.9685 z"
   class="st0"
   id="path24"
   sodipodi:nodetypes="ccccc" /><path
   style="fill:none;stroke:#00ffee;stroke-width:1.77630734;stroke-miterlimit:13.33329964;stroke-opacity:1"
   inkscape:connector-curvature="0"
   d="m 24.762321,1096.3114 h 5.968541 v 52.1131 h -5.968541 z"
   class="st0"
   id="path34"
   sodipodi:nodetypes="ccccc" /><path
   style="fill:none;stroke:#ff0000;stroke-width:1.77630734;stroke-miterlimit:13.33329964;stroke-opacity:1"
   inkscape:connector-curvature="0"
   d="m 1004.3626,1122.3746 c 0,-13.1761 -10.68478,-23.8741 -23.8742,-23.8741 -13.18941,0 -23.87416,10.6847 -23.87416,23.8741 0,13.1894 10.68475,23.8742 23.87416,23.8742 13.18942,0 23.8742,-10.6981 23.8742,-23.8742 z"
   class="st3"
   id="path38" /><path
   style="fill:none;stroke:#ff0000;stroke-width:1.77630734;stroke-miterlimit:13.33329964;stroke-opacity:1"
   inkscape:connector-curvature="0"
   d="m 879.27632,1122.3746 c 0,-13.1761 -10.68475,-23.8741 -23.87416,-23.8741 -13.17609,0 -23.87417,10.6847 -23.87417,23.8741 0,13.1894 10.68475,23.8742 23.87417,23.8742 13.17608,0 23.87416,-10.6981 23.87416,-23.8742 z"
   class="st3"
   id="path46" /><path
   style="fill:none;stroke:#ff0000;stroke-width:1.77630734;stroke-miterlimit:13.33329964;stroke-opacity:1"
   inkscape:connector-curvature="0"
   d="m 754.17675,1122.3746 c 0,-13.1761 -10.68475,-23.8741 -23.87417,-23.8741 -13.18941,0 -23.87416,10.6847 -23.87416,23.8741 0,13.1894 10.68475,23.8742 23.87416,23.8742 13.18942,0 23.87417,-10.6981 23.87417,-23.8742 z"
   class="st3"
   id="path54" /><path
   style="fill:none;stroke:#ff0000;stroke-width:1.77630734;stroke-miterlimit:13.33329964;stroke-opacity:1"
   inkscape:connector-curvature="0"
   d="m 629.0905,1122.3746 c 0,-13.1761 -10.68475,-23.8741 -23.87416,-23.8741 -13.18942,0 -23.87417,10.6847 -23.87417,23.8741 0,13.1894 10.68475,23.8742 23.87417,23.8742 13.18941,0 23.87416,-10.6981 23.87416,-23.8742 z"
   class="st3"
   id="path62" /><path
   style="fill:none;stroke:#ff0000;stroke-width:1.77630734;stroke-miterlimit:13.33329964;stroke-opacity:1"
   inkscape:connector-curvature="0"
   d="m 503.99093,1122.3746 c 0,-13.1761 -10.68475,-23.8741 -23.87416,-23.8741 -13.18942,0 -23.87417,10.6847 -23.87417,23.8741 0,13.1894 10.68475,23.8742 23.87417,23.8742 13.18941,0 23.87416,-10.6981 23.87416,-23.8742 z"
   class="st3"
   id="path70" /><path
   style="fill:none;stroke:#ff0000;stroke-width:1.77630734;stroke-miterlimit:13.33329964;stroke-opacity:1"
   inkscape:connector-curvature="0"
   d="m 378.90468,1122.3746 c 0,-13.1761 -10.68475,-23.8741 -23.87416,-23.8741 -13.18941,0 -23.87417,10.6847 -23.87417,23.8741 0,13.1894 10.68476,23.8742 23.87417,23.8742 13.18941,0 23.87416,-10.6981 23.87416,-23.8742 z"
   class="st3"
   id="path78" />
<path
   style="fill:none;stroke:#00ff00;stroke-width:1.77630734;stroke-miterlimit:13.33329964;stroke-opacity:1"
   inkscape:connector-curvature="0"
   d="m 12.825237,1170.1096 c -6.5947055,0 -11.93708333,5.3424 -11.93708333,11.9371 v 71.6092 c 0,6.5947 5.34237783,11.9371 11.93708333,11.9371 h 44.351062 33.639661 322.9141"
   class="st1"
   id="path4812_2_" /><path
   style="fill:none;stroke:#00ffee;stroke-width:1.77630734;stroke-miterlimit:13.33329964;stroke-opacity:1"
   inkscape:connector-curvature="0"
   d="M 413.73006,1265.593 H 793.03889"
   class="st0"
   id="path4810_1_" /><path
   style="fill:none;stroke:#00ff00;stroke-width:1.77630734;stroke-miterlimit:13.33329964;stroke-opacity:1"
   inkscape:connector-curvature="0"
   d="m 793.02556,1265.593 h 320.10304 47.7483 161.8168 c 6.5947,0 11.9371,-5.3424 11.9371,-11.9371 v -71.6092 c 0,-6.5947 -5.3424,-11.9371 -11.9371,-11.9371"
   class="st1"
   id="path22_1_" /><path
   style="fill:none;stroke:#00ffee;stroke-width:1.77630734;stroke-miterlimit:13.33329964;stroke-opacity:1"
   inkscape:connector-curvature="0"
   d="m 1304.7881,1191.7948 h 5.9685 v 52.1131 h -5.9685 z"
   class="st0"
   id="path24_1_"
   sodipodi:nodetypes="ccccc" /><path
   style="fill:none;stroke:#00ffee;stroke-width:1.77630734;stroke-miterlimit:13.33329964;stroke-opacity:1"
   inkscape:connector-curvature="0"
   d="m 24.762321,1191.7948 h 5.968541 v 52.1131 h -5.968541 z"
   class="st0"
   id="path34_1_"
   sodipodi:nodetypes="ccccc" /><path
   style="fill:none;stroke:#ff0000;stroke-width:1.77630734;stroke-miterlimit:13.33329964;stroke-opacity:1"
   inkscape:connector-curvature="0"
   d="m 1004.3626,1217.858 c 0,-13.1761 -10.68478,-23.8742 -23.8742,-23.8742 -13.18941,0 -23.87416,10.6848 -23.87416,23.8742 0,13.1761 10.68475,23.8741 23.87416,23.8741 13.18942,0 23.8742,-10.698 23.8742,-23.8741 z"
   class="st3"
   id="path38_1_" /><path
   style="fill:none;stroke:#ff0000;stroke-width:1.77630734;stroke-miterlimit:13.33329964;stroke-opacity:1"
   inkscape:connector-curvature="0"
   d="m 879.27632,1217.858 c 0,-13.1761 -10.68475,-23.8742 -23.87416,-23.8742 -13.17609,0 -23.87417,10.6848 -23.87417,23.8742 0,13.1761 10.68475,23.8741 23.87417,23.8741 13.17608,0 23.87416,-10.698 23.87416,-23.8741 z"
   class="st3"
   id="path46_1_" /><path
   style="fill:none;stroke:#ff0000;stroke-width:1.77630734;stroke-miterlimit:13.33329964;stroke-opacity:1"
   inkscape:connector-curvature="0"
   d="m 754.17675,1217.858 c 0,-13.1761 -10.68475,-23.8742 -23.87417,-23.8742 -13.18941,0 -23.87416,10.6848 -23.87416,23.8742 0,13.1761 10.68475,23.8741 23.87416,23.8741 13.18942,0 23.87417,-10.698 23.87417,-23.8741 z"
   class="st3"
   id="path54_1_" /><path
   style="fill:none;stroke:#ff0000;stroke-width:1.77630734;stroke-miterlimit:13.33329964;stroke-opacity:1"
   inkscape:connector-curvature="0"
   d="m 629.0905,1217.858 c 0,-13.1761 -10.68475,-23.8742 -23.87416,-23.8742 -13.18942,0 -23.87417,10.6848 -23.87417,23.8742 0,13.1761 10.68475,23.8741 23.87417,23.8741 13.18941,0 23.87416,-10.698 23.87416,-23.8741 z"
   class="st3"
   id="path62_1_" /><path
   style="fill:none;stroke:#ff0000;stroke-width:1.77630734;stroke-miterlimit:13.33329964;stroke-opacity:1"
   inkscape:connector-curvature="0"
   d="m 503.99093,1217.858 c 0,-13.1761 -10.68475,-23.8742 -23.87416,-23.8742 -13.18942,0 -23.87417,10.6848 -23.87417,23.8742 0,13.1761 10.68475,23.8741 23.87417,23.8741 13.18941,0 23.87416,-10.698 23.87416,-23.8741 z"
   class="st3"
   id="path70_1_" /><path
   style="fill:none;stroke:#ff0000;stroke-width:1.77630734;stroke-miterlimit:13.33329964;stroke-opacity:1"
   inkscape:connector-curvature="0"
   d="m 378.90468,1217.858 c 0,-13.1761 -10.68475,-23.8742 -23.87416,-23.8742 -13.18941,0 -23.87417,10.6848 -23.87417,23.8742 0,13.1761 10.68476,23.8741 23.87417,23.8741 13.18941,0 23.87416,-10.698 23.87416,-23.8741 z"
   class="st3"
   id="path78_1_" />
<path
   style="fill:none;stroke:#00ff00;stroke-width:1.77630734;stroke-miterlimit:13.33329964;stroke-opacity:1"
   inkscape:connector-curvature="0"
   d="m 12.825237,1265.593 c -6.5947055,0 -11.93708333,5.3424 -11.93708333,11.9371 v 71.6091 c 0,6.5948 5.34237783,11.9371 11.93708333,11.9371 h 44.351062 33.639661 322.9141"
   class="st1"
   id="path4812_1_" /><path
   style="fill:none;stroke:#0000ff;stroke-width:1.77630734;stroke-miterlimit:13.33329964;stroke-opacity:1"
   inkscape:connector-curvature="0"
   d="M 413.73006,1361.0763 H 793.03889"
   class="st2"
   id="path4810_2_" /><path
   style="fill:none;stroke:#00ff00;stroke-width:1.77630734;stroke-miterlimit:13.33329964;stroke-opacity:1"
   inkscape:connector-curvature="0"
   d="m 793.02556,1361.0763 h 320.10304 47.7483 161.8168 c 6.5947,0 11.9371,-5.3423 11.9371,-11.9371 v -71.6091 c 0,-6.5947 -5.3424,-11.9371 -11.9371,-11.9371"
   class="st1"
   id="path22_2_" /><path
   style="fill:none;stroke:#00ffee;stroke-width:1.77630734;stroke-miterlimit:13.33329964;stroke-opacity:1"
   inkscape:connector-curvature="0"
   d="m 1304.7881,1287.2781 h 5.9685 v 52.1131 h -5.9685 z"
   class="st0"
   id="path24_2_"
   sodipodi:nodetypes="ccccc" /><path
   style="fill:none;stroke:#00ffee;stroke-width:1.77630734;stroke-miterlimit:13.33329964;stroke-opacity:1"
   inkscape:connector-curvature="0"
   d="m 24.762321,1287.2781 h 5.968541 v 52.1131 h -5.968541 z"
   class="st0"
   id="path34_2_"
   sodipodi:nodetypes="ccccc" /><path
   style="fill:none;stroke:#ff0000;stroke-width:1.77630734;stroke-miterlimit:13.33329964;stroke-opacity:1"
   inkscape:connector-curvature="0"
   d="m 1004.3626,1313.3413 c 0,-13.1761 -10.68478,-23.8742 -23.8742,-23.8742 -13.18941,0 -23.87416,10.6848 -23.87416,23.8742 0,13.1894 10.68475,23.8742 23.87416,23.8742 13.18942,0 23.8742,-10.6981 23.8742,-23.8742 z"
   class="st3"
   id="path38_2_" /><path
   style="fill:none;stroke:#ff0000;stroke-width:1.77630734;stroke-miterlimit:13.33329964;stroke-opacity:1"
   inkscape:connector-curvature="0"
   d="m 879.27632,1313.3413 c 0,-13.1761 -10.68475,-23.8742 -23.87416,-23.8742 -13.17609,0 -23.87417,10.6848 -23.87417,23.8742 0,13.1894 10.68475,23.8742 23.87417,23.8742 13.17608,-0.013 23.87416,-10.6981 23.87416,-23.8742 z"
   class="st3"
   id="path46_2_" /><path
   style="fill:none;stroke:#ff0000;stroke-width:1.77630734;stroke-miterlimit:13.33329964;stroke-opacity:1"
   inkscape:connector-curvature="0"
   d="m 754.17675,1313.3413 c 0,-13.1761 -10.68475,-23.8742 -23.87417,-23.8742 -13.18941,0 -23.87416,10.6848 -23.87416,23.8742 0,13.1894 10.68475,23.8742 23.87416,23.8742 13.18942,0 23.87417,-10.6981 23.87417,-23.8742 z"
   class="st3"
   id="path54_2_" /><path
   style="fill:none;stroke:#ff0000;stroke-width:1.77630734;stroke-miterlimit:13.33329964;stroke-opacity:1"
   inkscape:connector-curvature="0"
   d="m 629.0905,1313.3413 c 0,-13.1761 -10.68475,-23.8742 -23.87416,-23.8742 -13.18942,0 -23.87417,10.6848 -23.87417,23.8742 0,13.1894 10.68475,23.8742 23.87417,23.8742 13.18941,-0.013 23.87416,-10.6981 23.87416,-23.8742 z"
   class="st3"
   id="path62_2_" /><path
   style="fill:none;stroke:#ff0000;stroke-width:1.77630734;stroke-miterlimit:13.33329964;stroke-opacity:1"
   inkscape:connector-curvature="0"
   d="m 503.99093,1313.3413 c 0,-13.1761 -10.68475,-23.8742 -23.87416,-23.8742 -13.18942,0 -23.87417,10.6848 -23.87417,23.8742 0,13.1894 10.68475,23.8742 23.87417,23.8742 13.18941,-0.013 23.87416,-10.6981 23.87416,-23.8742 z"
   class="st3"
   id="path70_2_" /><path
   style="fill:none;stroke:#ff0000;stroke-width:1.77630734;stroke-miterlimit:13.33329964;stroke-opacity:1"
   inkscape:connector-curvature="0"
   d="m 378.90468,1313.3413 c 0,-13.1761 -10.68475,-23.8742 -23.87416,-23.8742 -13.18941,0 -23.87417,10.6848 -23.87417,23.8742 0,13.1894 10.68476,23.8742 23.87417,23.8742 13.18941,-0.013 23.87416,-10.6981 23.87416,-23.8742 z"
   class="st3"
   id="path78_2_" />
<path
   style="fill:none;stroke:#00ff00;stroke-width:1.77630734;stroke-miterlimit:13.33329964;stroke-opacity:1"
   inkscape:connector-curvature="0"
   d="m 12.825237,1361.0763 c -6.5947055,0 -11.93708333,5.3424 -11.93708333,11.9371 v 71.6092 c 0,6.5947 5.34237783,11.9371 11.93708333,11.9371 h 44.351062 33.639661 322.9141"
   class="st1"
   id="path4812_3_" /><path
   style="fill:none;stroke:#00ffee;stroke-width:1.77630734;stroke-miterlimit:13.33329964;stroke-opacity:1"
   inkscape:connector-curvature="0"
   d="M 413.73006,1456.5597 H 793.03889"
   class="st0"
   id="path4810_3_" /><path
   style="fill:none;stroke:#00ff00;stroke-width:1.77630734;stroke-miterlimit:13.33329964;stroke-opacity:1"
   inkscape:connector-curvature="0"
   d="m 793.02556,1456.5597 h 320.10304 47.7483 161.8168 c 6.5947,0 11.9371,-5.3424 11.9371,-11.9371 v -71.6092 c 0,-6.5947 -5.3424,-11.9371 -11.9371,-11.9371"
   class="st1"
   id="path22_5_" /><path
   style="fill:none;stroke:#00ffee;stroke-width:1.77630734;stroke-miterlimit:13.33329964;stroke-opacity:1"
   inkscape:connector-curvature="0"
   d="m 1304.7881,1382.7615 h 5.9685 v 52.113 h -5.9685 z"
   class="st0"
   id="path24_3_"
   sodipodi:nodetypes="ccccc" /><path
   style="fill:none;stroke:#00ffee;stroke-width:1.77630734;stroke-miterlimit:13.33329964;stroke-opacity:1"
   inkscape:connector-curvature="0"
   d="m 24.762321,1382.7615 h 5.968541 v 52.113 h -5.968541 z"
   class="st0"
   id="path34_3_"
   sodipodi:nodetypes="ccccc" /><path
   style="fill:none;stroke:#ff0000;stroke-width:1.77630734;stroke-miterlimit:13.33329964;stroke-opacity:1"
   inkscape:connector-curvature="0"
   d="m 1004.3626,1408.8247 c 0,-13.1761 -10.68478,-23.8742 -23.8742,-23.8742 -13.18941,0 -23.87416,10.6848 -23.87416,23.8742 0,13.1894 10.68475,23.8741 23.87416,23.8741 13.18942,0 23.8742,-10.698 23.8742,-23.8741 z"
   class="st3"
   id="path38_3_" /><path
   style="fill:none;stroke:#ff0000;stroke-width:1.77630734;stroke-miterlimit:13.33329964;stroke-opacity:1"
   inkscape:connector-curvature="0"
   d="m 879.27632,1408.8247 c 0,-13.1761 -10.68475,-23.8742 -23.87416,-23.8742 -13.17609,0 -23.87417,10.6848 -23.87417,23.8742 0,13.1894 10.68475,23.8741 23.87417,23.8741 13.17608,-0.013 23.87416,-10.698 23.87416,-23.8741 z"
   class="st3"
   id="path46_3_" /><path
   style="fill:none;stroke:#ff0000;stroke-width:1.77630734;stroke-miterlimit:13.33329964;stroke-opacity:1"
   inkscape:connector-curvature="0"
   d="m 754.17675,1408.8247 c 0,-13.1761 -10.68475,-23.8742 -23.87417,-23.8742 -13.18941,0 -23.87416,10.6848 -23.87416,23.8742 0,13.1894 10.68475,23.8741 23.87416,23.8741 13.18942,0 23.87417,-10.698 23.87417,-23.8741 z"
   class="st3"
   id="path54_3_" /><path
   style="fill:none;stroke:#ff0000;stroke-width:1.77630734;stroke-miterlimit:13.33329964;stroke-opacity:1"
   inkscape:connector-curvature="0"
   d="m 629.0905,1408.8247 c 0,-13.1761 -10.68475,-23.8742 -23.87416,-23.8742 -13.18942,0 -23.87417,10.6848 -23.87417,23.8742 0,13.1894 10.68475,23.8741 23.87417,23.8741 13.18941,-0.013 23.87416,-10.698 23.87416,-23.8741 z"
   class="st3"
   id="path62_3_" /><path
   style="fill:none;stroke:#ff0000;stroke-width:1.77630734;stroke-miterlimit:13.33329964;stroke-opacity:1"
   inkscape:connector-curvature="0"
   d="m 503.99093,1408.8247 c 0,-13.1761 -10.68475,-23.8742 -23.87416,-23.8742 -13.18942,0 -23.87417,10.6848 -23.87417,23.8742 0,13.1894 10.68475,23.8741 23.87417,23.8741 13.18941,-0.013 23.87416,-10.698 23.87416,-23.8741 z"
   class="st3"
   id="path70_3_" /><path
   style="fill:none;stroke:#ff0000;stroke-width:1.77630734;stroke-miterlimit:13.33329964;stroke-opacity:1"
   inkscape:connector-curvature="0"
   d="m 378.90468,1408.8247 c 0,-13.1761 -10.68475,-23.8742 -23.87416,-23.8742 -13.18941,0 -23.87417,10.6848 -23.87417,23.8742 0,13.1894 10.68476,23.8741 23.87417,23.8741 13.18941,-0.013 23.87416,-10.698 23.87416,-23.8741 z"
   class="st3"
   id="path78_3_" />
<path
   style="fill:none;stroke:#00ff00;stroke-width:1.77630734;stroke-miterlimit:13.33329964;stroke-opacity:1"
   inkscape:connector-curvature="0"
   d="m 12.825237,1456.5597 c -6.5947055,0 -11.93708333,5.3424 -11.93708333,11.9371 v 71.6091 c 0,6.5947 5.34237783,11.9371 11.93708333,11.9371 h 44.351062 33.639661 322.9141"
   class="st1"
   id="path4812_4_" /><path
   style="fill:none;stroke:#0000ff;stroke-width:1.77630734;stroke-miterlimit:13.33329964;stroke-opacity:1"
   inkscape:connector-curvature="0"
   d="M 413.73006,1552.043 H 793.03889"
   class="st2"
   id="path4810_4_" /><path
   style="fill:none;stroke:#00ff00;stroke-width:1.77630734;stroke-miterlimit:13.33329964;stroke-opacity:1"
   inkscape:connector-curvature="0"
   d="m 793.02556,1552.043 h 320.10304 47.7483 161.8168 c 6.5947,0 11.9371,-5.3424 11.9371,-11.9371 v -71.6091 c 0,-6.5947 -5.3424,-11.9371 -11.9371,-11.9371"
   class="st1"
   id="path22_7_" /><path
   style="fill:none;stroke:#00ffee;stroke-width:1.77630734;stroke-miterlimit:13.33329964;stroke-opacity:1"
   inkscape:connector-curvature="0"
   d="m 1304.7881,1478.2448 h 5.9685 v 52.1131 h -5.9685 z"
   class="st0"
   id="path24_4_"
   sodipodi:nodetypes="ccccc" /><path
   style="fill:none;stroke:#00ffee;stroke-width:1.77630734;stroke-miterlimit:13.33329964;stroke-opacity:1"
   inkscape:connector-curvature="0"
   d="m 24.762321,1478.2448 h 5.968541 v 52.1131 h -5.968541 z"
   class="st0"
   id="path34_4_"
   sodipodi:nodetypes="ccccc" /><path
   style="fill:none;stroke:#ff0000;stroke-width:1.77630734;stroke-miterlimit:13.33329964;stroke-opacity:1"
   inkscape:connector-curvature="0"
   d="m 1004.3626,1504.2947 c 0,-13.1761 -10.68478,-23.8742 -23.8742,-23.8742 -13.18941,0 -23.87416,10.6848 -23.87416,23.8742 0,13.1894 10.68475,23.8742 23.87416,23.8742 13.18942,0 23.8742,-10.6848 23.8742,-23.8742 z"
   class="st3"
   id="path38_4_" /><path
   style="fill:none;stroke:#ff0000;stroke-width:1.77630734;stroke-miterlimit:13.33329964;stroke-opacity:1"
   inkscape:connector-curvature="0"
   d="m 879.27632,1504.2947 c 0,-13.1761 -10.68475,-23.8742 -23.87416,-23.8742 -13.17609,0 -23.87417,10.6848 -23.87417,23.8742 0,13.1894 10.68475,23.8742 23.87417,23.8742 13.17608,0 23.87416,-10.6848 23.87416,-23.8742 z"
   class="st3"
   id="path46_4_" /><path
   style="fill:none;stroke:#ff0000;stroke-width:1.77630734;stroke-miterlimit:13.33329964;stroke-opacity:1"
   inkscape:connector-curvature="0"
   d="m 754.17675,1504.2947 c 0,-13.1761 -10.68475,-23.8742 -23.87417,-23.8742 -13.18941,0 -23.87416,10.6848 -23.87416,23.8742 0,13.1894 10.68475,23.8742 23.87416,23.8742 13.18942,0 23.87417,-10.6848 23.87417,-23.8742 z"
   class="st3"
   id="path54_4_" /><path
   style="fill:none;stroke:#ff0000;stroke-width:1.77630734;stroke-miterlimit:13.33329964;stroke-opacity:1"
   inkscape:connector-curvature="0"
   d="m 629.0905,1504.2947 c 0,-13.1761 -10.68475,-23.8742 -23.87416,-23.8742 -13.18942,0 -23.87417,10.6848 -23.87417,23.8742 0,13.1894 10.68475,23.8742 23.87417,23.8742 13.18941,0 23.87416,-10.6848 23.87416,-23.8742 z"
   class="st3"
   id="path62_4_" /><path
   style="fill:none;stroke:#ff0000;stroke-width:1.77630734;stroke-miterlimit:13.33329964;stroke-opacity:1"
   inkscape:connector-curvature="0"
   d="m 503.99093,1504.2947 c 0,-13.1761 -10.68475,-23.8742 -23.87416,-23.8742 -13.18942,0 -23.87417,10.6848 -23.87417,23.8742 0,13.1894 10.68475,23.8742 23.87417,23.8742 13.18941,0 23.87416,-10.6848 23.87416,-23.8742 z"
   class="st3"
   id="path70_4_" /><path
   style="fill:none;stroke:#ff0000;stroke-width:1.77630734;stroke-miterlimit:13.33329964;stroke-opacity:1"
   inkscape:connector-curvature="0"
   d="m 378.90468,1504.2947 c 0,-13.1761 -10.68475,-23.8742 -23.87416,-23.8742 -13.18941,0 -23.87417,10.6848 -23.87417,23.8742 0,13.1894 10.68476,23.8742 23.87417,23.8742 13.18941,0 23.87416,-10.6848 23.87416,-23.8742 z"
   class="st3"
   id="path78_4_" />
<g
   id="g5354"
   transform="translate(-5.3556336e-7,0.0350742)"><path
     id="path4806"
     class="st0"
     d="M 1019.4038,0.86640211 H 398.74209"
     inkscape:connector-curvature="0"
     style="fill:none;stroke:#00ffee;stroke-width:1.77630734;stroke-miterlimit:13.33329964;stroke-opacity:1" /><path
     id="path4804"
     class="st1"
     d="M 398.74209,0.86640211 H 93.067487 61.226382 41.628781 19.526525 12.891851 c -6.5947058,0 -11.9370836,5.34237779 -11.9370836,11.93708389 v 71.609179 c 0,6.594706 5.3423778,11.937084 11.9370836,11.937084 h 6.634674 22.102256 19.610923 31.827783 305.194993"
     inkscape:connector-curvature="0"
     style="fill:none;stroke:#00ff00;stroke-width:1.77630734;stroke-miterlimit:13.33329964;stroke-opacity:1" /><path
     id="path4802"
     class="st2"
     d="M 398.24916,96.336426 H 1021.3623"
     inkscape:connector-curvature="0"
     style="fill:none;stroke:#0000ff;stroke-width:1.77630734;stroke-miterlimit:13.33329964;stroke-opacity:1" /><path
     id="path82"
     class="st1"
     d="m 1021.3623,96.336426 h 391.6722 34.2791 140.1542 16.7998 4.8628 c 6.5947,0 11.9371,-5.342378 11.9371,-11.937084 V 12.790163 c 0,-6.5947057 -5.3424,-11.93708353 -11.9371,-11.93708353 h -4.8628 -16.7998 -140.1542 -34.2791 -393.6307"
     inkscape:connector-curvature="0"
     style="fill:none;stroke:#00ff00;stroke-width:1.77630734;stroke-miterlimit:13.33329964;stroke-opacity:1" /><path
     id="path94"
     class="st3"
     d="m 411.5185,37.676851 h -1.85184 -14.33516 -5.59551 c -0.79936,-0.546228 -1.67865,-0.852649 -2.59791,-0.852649 -3.8236,0 -6.92778,5.249119 -6.92778,11.710599 0,6.461479 3.10418,11.710599 6.92778,11.710599 0.91926,0 1.78523,-0.306421 2.59791,-0.852649 h 0.9992 18.94479 1.85185"
     inkscape:connector-curvature="0"
     style="fill:none;stroke:#ff0000;stroke-width:1.77630734;stroke-miterlimit:13.33329964;stroke-opacity:1" /><path
     id="path106"
     class="st3"
     d="m 683.96645,31.215371 v 6.035155 17.759077 1.891815 c -0.90594,1.239005 -1.4122,2.624559 -1.4122,4.076727 0,5.342378 6.75458,9.672235 15.09455,9.672235 8.33997,0 15.09455,-4.329857 15.09455,-9.672235 0,-1.452168 -0.51959,-2.837722 -1.42552,-4.076727 V 55.009603 37.250526 31.215371"
     inkscape:connector-curvature="0"
     style="fill:none;stroke:#ff0000;stroke-width:1.77630734;stroke-miterlimit:13.33329964;stroke-opacity:1" /><path
     id="path110"
     class="st3"
     d="m 910.71775,31.215371 v 6.035155 17.759077 1.891815 c -0.90594,1.239005 -1.42552,2.624559 -1.42552,4.076727 0,5.342378 6.75457,9.672235 15.09455,9.672235 8.33997,0 15.09454,-4.329857 15.09454,-9.672235 0,-1.452168 -0.51958,-2.837722 -1.4122,-4.076727 V 55.009603 37.250526 31.215371"
     inkscape:connector-curvature="0"
     style="fill:none;stroke:#ff0000;stroke-width:1.77630734;stroke-miterlimit:13.33329964;stroke-opacity:1" /><path
     id="path114"
     class="st3"
     d="m 1210.5037,59.379428 h 1.8519 14.3485 5.5955 c 0.7993,0.546228 1.6653,0.852649 2.5846,0.852649 3.8236,0 6.9277,-5.249119 6.9277,-11.710599 0,-6.461479 -3.1041,-11.710599 -6.9277,-11.710599 -0.9193,0 -1.7853,0.306421 -2.5846,0.852649 h -0.9992 -18.9448 -1.8519"
     inkscape:connector-curvature="0"
     style="fill:none;stroke:#ff0000;stroke-width:1.77630734;stroke-miterlimit:13.33329964;stroke-opacity:1" /><path
     id="path122"
     class="st3"
     d="m 1552.4426,62.203827 h 11.3375 16.4402 l -0.1599,0.373034 -3.9835,18.185401 h 13.1628 V 63.37622 c 4.5164,-1.265651 7.9536,-7.42071 7.9536,-14.841419 0,-7.420709 -3.4372,-13.575768 -7.9536,-14.841419 V 16.30734 h -13.1628 l 3.9835,18.1854 0.1599,0.373034 h -16.4402 -11.3375"
     inkscape:connector-curvature="0"
     style="fill:none;stroke:#ff0000;stroke-width:1.77630734;stroke-miterlimit:13.33329964;stroke-opacity:1" /><path
     id="path126"
     class="st3"
     d="M 69.579676,62.203827 H 58.242111 41.801976 l 0.159871,0.373034 3.983469,18.185401 H 32.78255 V 63.37622 c -4.516375,-1.265651 -7.953615,-7.42071 -7.953615,-14.841419 0,-7.420709 3.43724,-13.575768 7.953615,-14.841419 V 16.30734 h 13.162766 l -3.983469,18.1854 -0.159871,0.373034 h 16.440135 11.337565"
     inkscape:connector-curvature="0"
     style="fill:none;stroke:#ff0000;stroke-width:1.77630734;stroke-miterlimit:13.33329964;stroke-opacity:1" /><path
     id="path4780"
     class="st3"
     d="m 242.36097,37.676851 h -1.85185 -14.33516 -5.59551 c -0.79935,-0.546228 -1.67865,-0.852649 -2.59791,-0.852649 -3.8236,0 -6.92777,5.249119 -6.92777,11.710599 0,6.461479 3.10417,11.710599 6.92777,11.710599 0.91926,0 1.78523,-0.306421 2.59791,-0.852649 h 0.9992 18.94479 1.85185"
     inkscape:connector-curvature="0"
     style="fill:none;stroke:#ff0000;stroke-width:1.77630734;stroke-miterlimit:13.33329964;stroke-opacity:1" /><path
     id="path4794"
     class="st3"
     d="m 1379.6613,59.379428 h 1.8518 14.3485 5.5955 c 0.7994,0.546228 1.6653,0.852649 2.5846,0.852649 3.8236,0 6.9278,-5.249119 6.9278,-11.710599 0,-6.461479 -3.1042,-11.710599 -6.9278,-11.710599 -0.9193,0 -1.7852,0.306421 -2.5846,0.852649 h -0.9992 -18.9448 -1.8518"
     inkscape:connector-curvature="0"
     style="fill:none;stroke:#ff0000;stroke-width:1.77630734;stroke-miterlimit:13.33329964;stroke-opacity:1" /></g>
<path
   style="fill:none;stroke:#00ff00;stroke-width:1.77630734;stroke-miterlimit:13.33329964;stroke-opacity:1"
   inkscape:connector-curvature="0"
   d="m 12.865205,96.304974 c -6.5947055,0 -11.93708342,5.342296 -11.93708342,11.936996 v 71.6092 c 0,6.5947 5.34237792,11.9371 11.93708342,11.9371 h 6.634673 22.088934 19.610923 31.827783 305.208312"
   class="st1"
   id="path4804_2_" /><path
   style="fill:none;stroke:#00ffee;stroke-width:1.77630734;stroke-miterlimit:13.33329964;stroke-opacity:1"
   inkscape:connector-curvature="0"
   d="M 398.23583,191.78827 H 1021.3756"
   class="st0"
   id="path4802_1_" /><path
   style="fill:none;stroke:#00ff00;stroke-width:1.77630734;stroke-miterlimit:13.33329964;stroke-opacity:1"
   inkscape:connector-curvature="0"
   d="m 1021.3756,191.78827 h 391.6855 34.2925 140.1542 16.7998 4.8628 c 6.5947,0 11.9371,-5.3424 11.9371,-11.9371 v -71.6092 c 0,-6.5947 -5.3424,-11.936996 -11.9371,-11.936996"
   class="st1"
   id="path82_1_" /><path
   style="fill:none;stroke:#ff0000;stroke-width:1.77630734;stroke-miterlimit:13.33329964;stroke-opacity:1"
   inkscape:connector-curvature="0"
   d="m 411.50518,133.12867 h -1.85185 -14.34848 -5.59551 c -0.79935,-0.5462 -1.67865,-0.8526 -2.59791,-0.8526 -3.8236,0 -6.92777,5.2491 -6.92777,11.7106 0,6.4614 3.10417,11.7106 6.92777,11.7106 0.91926,0 1.78523,-0.3065 2.59791,-0.8527 h 0.9992 18.94479 1.85185"
   class="st3"
   id="path94_1_" /><path
   style="fill:none;stroke:#ff0000;stroke-width:1.77630734;stroke-miterlimit:13.33329964;stroke-opacity:1"
   inkscape:connector-curvature="0"
   d="m 683.95313,126.65387 v 6.0352 17.759 1.8919 c -0.90594,1.239 -1.42553,2.6245 -1.42553,4.0767 0,5.3424 6.75458,9.6722 15.09455,9.6722 8.33998,0 15.09455,-4.3298 15.09455,-9.6722 0,-1.4522 -0.51958,-2.8377 -1.42552,-4.0767 v -1.8919 -17.759 -6.0352"
   class="st3"
   id="path106_1_" /><path
   style="fill:none;stroke:#ff0000;stroke-width:1.77630734;stroke-miterlimit:13.33329964;stroke-opacity:1"
   inkscape:connector-curvature="0"
   d="m 910.73107,126.65387 v 6.0352 17.759 1.8919 c -0.90594,1.239 -1.42552,2.6245 -1.42552,4.0767 0,5.3424 6.75458,9.6722 15.09455,9.6722 8.33997,0 15.09455,-4.3298 15.09455,-9.6722 0,-1.4522 -0.51959,-2.8377 -1.42553,-4.0767 v -1.8919 -17.759 -6.0352"
   class="st3"
   id="path110_1_" /><path
   style="fill:none;stroke:#ff0000;stroke-width:1.77630734;stroke-miterlimit:13.33329964;stroke-opacity:1"
   inkscape:connector-curvature="0"
   d="m 1210.5171,154.83127 h 1.8518 14.3485 5.5955 c 0.7994,0.5462 1.6653,0.8526 2.5846,0.8526 3.8236,0 6.9278,-5.2491 6.9278,-11.7106 0,-6.4614 -3.1042,-11.7106 -6.9278,-11.7106 -0.9193,0 -1.7852,0.3065 -2.5979,0.8527 h -0.9992 -18.9182 -1.8518"
   class="st3"
   id="path114_1_" /><path
   style="fill:none;stroke:#ff0000;stroke-width:1.77630734;stroke-miterlimit:13.33329964;stroke-opacity:1"
   inkscape:connector-curvature="0"
   d="m 1552.4825,157.65567 h 11.3376 16.4401 l -0.1598,0.373 -3.9835,18.1854 h 13.1628 v -17.386 c 4.5163,-1.2657 7.9536,-7.4207 7.9536,-14.8414 0,-7.4207 -3.4373,-13.5758 -7.9536,-14.8414 v -17.3994 h -13.1628 l 3.9835,18.1854 0.1598,0.373 h -16.4401 -11.3376"
   class="st3"
   id="path122_1_" /><path
   style="fill:none;stroke:#ff0000;stroke-width:1.77630734;stroke-miterlimit:13.33329964;stroke-opacity:1"
   inkscape:connector-curvature="0"
   d="M 69.553029,157.65567 H 58.215465 41.775329 l 0.159872,0.373 3.983469,18.1854 H 32.755903 v -17.386 c -4.516374,-1.2657 -7.953615,-7.4207 -7.953615,-14.8414 0,-7.4207 3.437241,-13.5758 7.953615,-14.8414 v -17.3994 H 45.91867 l -3.983469,18.1854 -0.159872,0.373 h 16.440136 11.337564"
   class="st3"
   id="path126_1_" /><path
   style="fill:none;stroke:#ff0000;stroke-width:1.77630734;stroke-miterlimit:13.33329964;stroke-opacity:1"
   inkscape:connector-curvature="0"
   d="m 242.33432,133.12867 h -1.85184 -14.34849 -5.5955 c -0.79936,-0.5462 -1.67866,-0.8526 -2.59792,-0.8526 -3.82359,0 -6.92777,5.2491 -6.92777,11.7106 0,6.4614 3.10418,11.7106 6.92777,11.7106 0.91926,0 1.78524,-0.3065 2.59792,-0.8527 h 0.99919 18.9448 1.85184"
   class="st3"
   id="path4780_1_" /><path
   style="fill:none;stroke:#ff0000;stroke-width:1.77630734;stroke-miterlimit:13.33329964;stroke-opacity:1"
   inkscape:connector-curvature="0"
   d="m 1379.6879,154.83127 h 1.8519 14.3485 5.5955 c 0.7993,0.5462 1.6653,0.8526 2.5846,0.8526 3.8236,0 6.9277,-5.2491 6.9277,-11.7106 0,-6.4614 -3.1041,-11.7106 -6.9277,-11.7106 -0.9193,0 -1.7853,0.3065 -2.5846,0.8527 h -0.9992 -18.9448 -1.8519"
   class="st3"
   id="path4794_1_" />
<path
   style="fill:none;stroke:#00ff00;stroke-width:1.77630734;stroke-miterlimit:13.33329964;stroke-opacity:1"
   inkscape:connector-curvature="0"
   d="m 12.865205,191.78827 c -6.5947055,0 -11.93708342,5.3424 -11.93708342,11.9371 v 71.6092 c 0,6.5947 5.34237792,11.937 11.93708342,11.937 h 6.634673 22.088934 19.610923 31.827783 305.208312"
   class="st1"
   id="path4804_1_" /><path
   style="fill:none;stroke:#0000ff;stroke-width:1.77630734;stroke-miterlimit:13.33329964;stroke-opacity:1"
   inkscape:connector-curvature="0"
   d="M 398.23583,287.25827 H 1021.3756"
   class="st2"
   id="path4802_2_" /><path
   style="fill:none;stroke:#00ff00;stroke-width:1.77630734;stroke-miterlimit:13.33329964;stroke-opacity:1"
   inkscape:connector-curvature="0"
   d="m 1021.3756,287.25827 h 391.6855 34.2925 140.1542 16.7998 4.8628 c 6.5947,0 11.9371,-5.3424 11.9371,-11.9371 v -71.6091 c 0,-6.5948 -5.3424,-11.9371 -11.9371,-11.9371"
   class="st1"
   id="path82_2_" /><path
   style="fill:none;stroke:#ff0000;stroke-width:1.77630734;stroke-miterlimit:13.33329964;stroke-opacity:1"
   inkscape:connector-curvature="0"
   d="m 411.50518,228.59867 h -1.85185 -14.34848 -5.59551 c -0.79935,-0.5462 -1.67865,-0.8526 -2.59791,-0.8526 -3.8236,0 -6.92777,5.2491 -6.92777,11.7106 0,6.4615 3.10417,11.7106 6.92777,11.7106 0.91926,0 1.78523,-0.3064 2.59791,-0.8527 h 0.9992 18.94479 1.85185"
   class="st3"
   id="path94_2_" /><path
   style="fill:none;stroke:#ff0000;stroke-width:1.77630734;stroke-miterlimit:13.33329964;stroke-opacity:1"
   inkscape:connector-curvature="0"
   d="m 683.95313,222.13727 v 6.0351 17.7591 1.8918 c -0.90594,1.239 -1.42553,2.6246 -1.42553,4.0767 0,5.3424 6.75458,9.6723 15.09455,9.6723 8.33998,0 15.09455,-4.3299 15.09455,-9.6723 0,-1.4521 -0.51958,-2.8377 -1.42552,-4.0767 v -1.8918 -17.7591 -6.0351"
   class="st3"
   id="path106_2_" /><path
   style="fill:none;stroke:#ff0000;stroke-width:1.77630734;stroke-miterlimit:13.33329964;stroke-opacity:1"
   inkscape:connector-curvature="0"
   d="m 910.73107,222.13727 v 6.0351 17.7591 1.8918 c -0.90594,1.239 -1.42552,2.6246 -1.42552,4.0767 0,5.3424 6.75458,9.6723 15.09455,9.6723 8.33997,0 15.09455,-4.3299 15.09455,-9.6723 0,-1.4521 -0.51959,-2.8377 -1.42553,-4.0767 v -1.8918 -17.7591 -6.0351"
   class="st3"
   id="path110_2_" /><path
   style="fill:none;stroke:#ff0000;stroke-width:1.77630734;stroke-miterlimit:13.33329964;stroke-opacity:1"
   inkscape:connector-curvature="0"
   d="m 1210.5171,250.31457 h 1.8518 14.3485 5.5955 c 0.7994,0.5463 1.6653,0.8527 2.5846,0.8527 3.8236,0 6.9278,-5.2491 6.9278,-11.7106 0,-6.4615 -3.1042,-11.7106 -6.9278,-11.7106 -0.9193,0 -1.7852,0.3064 -2.5979,0.8526 h -0.9992 -18.9182 -1.8518"
   class="st3"
   id="path114_2_" /><path
   style="fill:none;stroke:#ff0000;stroke-width:1.77630734;stroke-miterlimit:13.33329964;stroke-opacity:1"
   inkscape:connector-curvature="0"
   d="m 1552.4825,253.12567 h 11.3376 16.4401 l -0.1598,0.3731 -3.9835,18.1854 h 13.1628 v -17.3861 c 4.5163,-1.2656 7.9536,-7.4207 7.9536,-14.8414 0,-7.4207 -3.4373,-13.5758 -7.9536,-14.8414 v -17.3861 h -13.1628 l 3.9835,18.1854 0.1598,0.3731 h -16.4401 -11.3376"
   class="st3"
   id="path122_2_" /><path
   style="fill:none;stroke:#ff0000;stroke-width:1.77630734;stroke-miterlimit:13.33329964;stroke-opacity:1"
   inkscape:connector-curvature="0"
   d="M 69.553029,253.12567 H 58.215465 41.775329 l 0.159872,0.3731 3.983469,18.1854 H 32.755903 v -17.3861 c -4.516374,-1.2656 -7.953615,-7.4207 -7.953615,-14.8414 0,-7.4207 3.437241,-13.5758 7.953615,-14.8414 v -17.3861 H 45.91867 l -3.983469,18.1854 -0.159872,0.3731 h 16.440136 11.337564"
   class="st3"
   id="path126_2_" /><path
   style="fill:none;stroke:#ff0000;stroke-width:1.77630734;stroke-miterlimit:13.33329964;stroke-opacity:1"
   inkscape:connector-curvature="0"
   d="m 242.33432,228.59867 h -1.85184 -14.34849 -5.5955 c -0.79936,-0.5462 -1.67866,-0.8526 -2.59792,-0.8526 -3.82359,0 -6.92777,5.2491 -6.92777,11.7106 0,6.4615 3.10418,11.7106 6.92777,11.7106 0.91926,0 1.78524,-0.3064 2.59792,-0.8527 h 0.99919 18.9448 1.85184"
   class="st3"
   id="path4780_2_" /><path
   style="fill:none;stroke:#ff0000;stroke-width:1.77630734;stroke-miterlimit:13.33329964;stroke-opacity:1"
   inkscape:connector-curvature="0"
   d="m 1379.6879,250.31457 h 1.8519 14.3485 5.5955 c 0.7993,0.5463 1.6653,0.8527 2.5846,0.8527 3.8236,0 6.9277,-5.2491 6.9277,-11.7106 0,-6.4615 -3.1041,-11.7106 -6.9277,-11.7106 -0.9193,0 -1.7853,0.3064 -2.5846,0.8526 h -0.9992 -18.9448 -1.8519"
   class="st3"
   id="path4794_2_" />
<path
   style="fill:none;stroke:#00ff00;stroke-width:1.77630734;stroke-miterlimit:13.33329964;stroke-opacity:1"
   inkscape:connector-curvature="0"
   d="m 12.865205,287.25827 c -6.5947055,0 -11.93708342,5.3424 -11.93708342,11.9371 v 71.6092 c 0,6.5947 5.34237792,11.9371 11.93708342,11.9371 h 6.634673 22.088934 19.610923 31.827783 305.208312"
   class="st1"
   id="path4804_3_" /><path
   style="fill:none;stroke:#00ffee;stroke-width:1.77630734;stroke-miterlimit:13.33329964;stroke-opacity:1"
   inkscape:connector-curvature="0"
   d="M 398.23583,382.74167 H 1021.3756"
   class="st0"
   id="path4802_3_" /><path
   style="fill:none;stroke:#00ff00;stroke-width:1.77630734;stroke-miterlimit:13.33329964;stroke-opacity:1"
   inkscape:connector-curvature="0"
   d="m 1021.3756,382.74167 h 391.6855 34.2925 140.1542 16.7998 4.8628 c 6.5947,0 11.9371,-5.3424 11.9371,-11.9371 v -71.6092 c 0,-6.5947 -5.3424,-11.9371 -11.9371,-11.9371"
   class="st1"
   id="path82_3_" /><path
   style="fill:none;stroke:#ff0000;stroke-width:1.77630734;stroke-miterlimit:13.33329964;stroke-opacity:1"
   inkscape:connector-curvature="0"
   d="m 411.50518,324.08207 h -1.85185 -14.34848 -5.59551 c -0.79935,-0.5462 -1.67865,-0.8527 -2.59791,-0.8527 -3.8236,0 -6.92777,5.2492 -6.92777,11.7106 0,6.4615 3.10417,11.7106 6.92777,11.7106 0.91926,0 1.78523,-0.3064 2.59791,-0.8526 h 0.9992 18.94479 1.85185"
   class="st3"
   id="path94_3_" /><path
   style="fill:none;stroke:#ff0000;stroke-width:1.77630734;stroke-miterlimit:13.33329964;stroke-opacity:1"
   inkscape:connector-curvature="0"
   d="m 683.95313,317.62057 v 6.0352 17.759 1.8919 c -0.90594,1.239 -1.42553,2.6245 -1.42553,4.0767 0,5.3424 6.75458,9.6722 15.09455,9.6722 8.33998,0 15.09455,-4.3298 15.09455,-9.6722 0,-1.4522 -0.51958,-2.8377 -1.42552,-4.0767 v -1.8919 -17.759 -6.0352"
   class="st3"
   id="path106_3_" /><path
   style="fill:none;stroke:#ff0000;stroke-width:1.77630734;stroke-miterlimit:13.33329964;stroke-opacity:1"
   inkscape:connector-curvature="0"
   d="m 910.73107,317.62057 v 6.0352 17.759 1.8919 c -0.90594,1.239 -1.42552,2.6245 -1.42552,4.0767 0,5.3424 6.75458,9.6722 15.09455,9.6722 8.33997,0 15.09455,-4.3298 15.09455,-9.6722 0,-1.4522 -0.51959,-2.8377 -1.42553,-4.0767 v -1.8919 -17.759 -6.0352"
   class="st3"
   id="path110_3_" /><path
   style="fill:none;stroke:#ff0000;stroke-width:1.77630734;stroke-miterlimit:13.33329964;stroke-opacity:1"
   inkscape:connector-curvature="0"
   d="m 1210.5171,345.79797 h 1.8518 14.3485 5.5955 c 0.7994,0.5462 1.6653,0.8526 2.5846,0.8526 3.8236,0 6.9278,-5.2491 6.9278,-11.7106 0,-6.4614 -3.1042,-11.7106 -6.9278,-11.7106 -0.9193,0 -1.7852,0.3065 -2.5979,0.8527 h -0.9992 -18.9182 -1.8518"
   class="st3"
   id="path114_3_" /><path
   style="fill:none;stroke:#ff0000;stroke-width:1.77630734;stroke-miterlimit:13.33329964;stroke-opacity:1"
   inkscape:connector-curvature="0"
   d="m 1552.4825,348.60907 h 11.3376 16.4401 l -0.1598,0.373 -3.9835,18.1854 h 13.1628 v -17.386 c 4.5163,-1.2657 7.9536,-7.4208 7.9536,-14.8415 0,-7.4207 -3.4373,-13.5757 -7.9536,-14.8414 v -17.386 h -13.1628 l 3.9835,18.1854 0.1598,0.373 h -16.4401 -11.3376"
   class="st3"
   id="path122_3_" /><path
   style="fill:none;stroke:#ff0000;stroke-width:1.77630734;stroke-miterlimit:13.33329964;stroke-opacity:1"
   inkscape:connector-curvature="0"
   d="M 69.553029,348.60907 H 58.215465 41.775329 l 0.159872,0.373 3.983469,18.1854 H 32.755903 v -17.386 c -4.516374,-1.2657 -7.953615,-7.4208 -7.953615,-14.8415 0,-7.4207 3.437241,-13.5757 7.953615,-14.8414 v -17.386 H 45.91867 l -3.983469,18.1854 -0.159872,0.373 h 16.440136 11.337564"
   class="st3"
   id="path126_3_" /><path
   style="fill:none;stroke:#ff0000;stroke-width:1.77630734;stroke-miterlimit:13.33329964;stroke-opacity:1"
   inkscape:connector-curvature="0"
   d="m 242.33432,324.08207 h -1.85184 -14.34849 -5.5955 c -0.79936,-0.5462 -1.67866,-0.8527 -2.59792,-0.8527 -3.82359,0 -6.92777,5.2492 -6.92777,11.7106 0,6.4615 3.10418,11.7106 6.92777,11.7106 0.91926,0 1.78524,-0.3064 2.59792,-0.8526 h 0.99919 18.9448 1.85184"
   class="st3"
   id="path4780_3_" /><path
   style="fill:none;stroke:#ff0000;stroke-width:1.77630734;stroke-miterlimit:13.33329964;stroke-opacity:1"
   inkscape:connector-curvature="0"
   d="m 1379.6879,345.79797 h 1.8519 14.3485 5.5955 c 0.7993,0.5462 1.6653,0.8526 2.5846,0.8526 3.8236,0 6.9277,-5.2491 6.9277,-11.7106 0,-6.4614 -3.1041,-11.7106 -6.9277,-11.7106 -0.9193,0 -1.7853,0.3065 -2.5846,0.8527 h -0.9992 -18.9448 -1.8519"
   class="st3"
   id="path4794_3_" />
<path
   style="fill:none;stroke:#00ff00;stroke-width:1.77630734;stroke-miterlimit:13.33329964;stroke-opacity:1"
   inkscape:connector-curvature="0"
   d="m 12.865205,382.74167 c -6.5947055,0 -11.93708342,5.3423 -11.93708342,11.937 v 71.6092 c 0,6.5947 5.34237792,11.9371 11.93708342,11.9371 h 6.634673 22.088934 19.610923 31.827783 305.208312"
   class="st1"
   id="path4804_4_" /><path
   style="fill:none;stroke:#0000ff;stroke-width:1.77630734;stroke-miterlimit:13.33329964;stroke-opacity:1"
   inkscape:connector-curvature="0"
   d="M 398.23583,478.22497 H 1021.3756"
   class="st2"
   id="path4802_4_" /><path
   style="fill:none;stroke:#00ff00;stroke-width:1.77630734;stroke-miterlimit:13.33329964;stroke-opacity:1"
   inkscape:connector-curvature="0"
   d="m 1021.3756,478.22497 h 391.6855 34.2925 140.1542 16.7998 4.8628 c 6.5947,0 11.9371,-5.3424 11.9371,-11.9371 v -71.6092 c 0,-6.5947 -5.3424,-11.937 -11.9371,-11.937"
   class="st1"
   id="path82_4_" /><path
   style="fill:none;stroke:#ff0000;stroke-width:1.77630734;stroke-miterlimit:13.33329964;stroke-opacity:1"
   inkscape:connector-curvature="0"
   d="m 411.50518,419.56537 h -1.85185 -14.34848 -5.59551 c -0.79935,-0.5462 -1.67865,-0.8526 -2.59791,-0.8526 -3.8236,0 -6.92777,5.2491 -6.92777,11.7106 0,6.4615 3.10417,11.7106 6.92777,11.7106 0.91926,0 1.78523,-0.3064 2.59791,-0.8527 h 0.9992 18.94479 1.85185"
   class="st3"
   id="path94_4_" /><path
   style="fill:none;stroke:#ff0000;stroke-width:1.77630734;stroke-miterlimit:13.33329964;stroke-opacity:1"
   inkscape:connector-curvature="0"
   d="m 683.95313,413.10397 v 6.0351 17.7591 1.8918 c -0.90594,1.239 -1.42553,2.6246 -1.42553,4.0767 0,5.3424 6.75458,9.6723 15.09455,9.6723 8.33998,0 15.09455,-4.3299 15.09455,-9.6723 0,-1.4521 -0.51958,-2.8377 -1.42552,-4.0767 v -1.8918 -17.7591 -6.0351"
   class="st3"
   id="path106_4_" /><path
   style="fill:none;stroke:#ff0000;stroke-width:1.77630734;stroke-miterlimit:13.33329964;stroke-opacity:1"
   inkscape:connector-curvature="0"
   d="m 910.73107,413.10397 v 6.0351 17.7591 1.8918 c -0.90594,1.239 -1.42552,2.6246 -1.42552,4.0767 0,5.3424 6.75458,9.6723 15.09455,9.6723 8.33997,0 15.09455,-4.3299 15.09455,-9.6723 0,-1.4521 -0.51959,-2.8377 -1.42553,-4.0767 v -1.8918 -17.7591 -6.0351"
   class="st3"
   id="path110_4_" /><path
   style="fill:none;stroke:#ff0000;stroke-width:1.77630734;stroke-miterlimit:13.33329964;stroke-opacity:1"
   inkscape:connector-curvature="0"
   d="m 1210.5171,441.26797 h 1.8518 14.3485 5.5955 c 0.7994,0.5462 1.6653,0.8527 2.5846,0.8527 3.8236,0 6.9278,-5.2492 6.9278,-11.7106 0,-6.4615 -3.1042,-11.7106 -6.9278,-11.7106 -0.9193,0 -1.7852,0.3064 -2.5979,0.8526 h -0.9992 -18.9182 -1.8518"
   class="st3"
   id="path114_4_" /><path
   style="fill:none;stroke:#ff0000;stroke-width:1.77630734;stroke-miterlimit:13.33329964;stroke-opacity:1"
   inkscape:connector-curvature="0"
   d="m 1552.4825,444.09237 h 11.3376 16.4401 l -0.1598,0.373 -3.9835,18.1854 h 13.1628 v -17.386 c 4.5163,-1.2656 7.9536,-7.4207 7.9536,-14.8414 0,-7.4207 -3.4373,-13.5758 -7.9536,-14.8414 v -17.3861 h -13.1628 l 3.9835,18.1854 0.1598,0.3731 h -16.4401 -11.3376"
   class="st3"
   id="path122_4_" /><path
   style="fill:none;stroke:#ff0000;stroke-width:1.77630734;stroke-miterlimit:13.33329964;stroke-opacity:1"
   inkscape:connector-curvature="0"
   d="M 69.553029,444.09237 H 58.215465 41.775329 l 0.159872,0.373 3.983469,18.1854 H 32.755903 v -17.386 c -4.516374,-1.2656 -7.953615,-7.4207 -7.953615,-14.8414 0,-7.4207 3.437241,-13.5758 7.953615,-14.8414 v -17.3861 H 45.91867 l -3.983469,18.1854 -0.159872,0.3731 h 16.440136 11.337564"
   class="st3"
   id="path126_4_" /><path
   style="fill:none;stroke:#ff0000;stroke-width:1.77630734;stroke-miterlimit:13.33329964;stroke-opacity:1"
   inkscape:connector-curvature="0"
   d="m 242.33432,419.56537 h -1.85184 -14.34849 -5.5955 c -0.79936,-0.5462 -1.67866,-0.8526 -2.59792,-0.8526 -3.82359,0 -6.92777,5.2491 -6.92777,11.7106 0,6.4615 3.10418,11.7106 6.92777,11.7106 0.91926,0 1.78524,-0.3064 2.59792,-0.8527 h 0.99919 18.9448 1.85184"
   class="st3"
   id="path4780_4_" /><path
   style="fill:none;stroke:#ff0000;stroke-width:1.77630734;stroke-miterlimit:13.33329964;stroke-opacity:1"
   inkscape:connector-curvature="0"
   d="m 1379.6879,441.26797 h 1.8519 14.3485 5.5955 c 0.7993,0.5462 1.6653,0.8527 2.5846,0.8527 3.8236,0 6.9277,-5.2492 6.9277,-11.7106 0,-6.4615 -3.1041,-11.7106 -6.9277,-11.7106 -0.9193,0 -1.7853,0.3064 -2.5846,0.8526 h -0.9992 -18.9448 -1.8519"
   class="st3"
   id="path4794_4_" />
<path
   style="fill:none;stroke:#00ff00;stroke-width:1.77630734;stroke-miterlimit:13.33329964;stroke-opacity:1"
   inkscape:connector-curvature="0"
   d="m 12.865205,478.22497 c -6.5947055,0 -11.93708342,5.3424 -11.93708342,11.9371 v 71.6092 c 0,6.5947 5.34237792,11.9371 11.93708342,11.9371 h 6.634673 22.088934 19.610923 31.827783 305.208312"
   class="st1"
   id="path4804_5_" /><path
   style="fill:none;stroke:#00ffee;stroke-width:1.77630734;stroke-miterlimit:13.33329964;stroke-opacity:1"
   inkscape:connector-curvature="0"
   d="M 398.23583,573.70837 H 1021.3756"
   class="st0"
   id="path4802_5_" /><path
   style="fill:none;stroke:#00ff00;stroke-width:1.77630734;stroke-miterlimit:13.33329964;stroke-opacity:1"
   inkscape:connector-curvature="0"
   d="m 1021.3756,573.70837 h 391.6855 34.2925 140.1542 16.7998 4.8628 c 6.5947,0 11.9371,-5.3424 11.9371,-11.9371 v -71.6092 c 0,-6.5947 -5.3424,-11.9371 -11.9371,-11.9371"
   class="st1"
   id="path82_5_" /><path
   style="fill:none;stroke:#ff0000;stroke-width:1.77630734;stroke-miterlimit:13.33329964;stroke-opacity:1"
   inkscape:connector-curvature="0"
   d="m 411.50518,515.04877 h -1.85185 -14.34848 -5.59551 c -0.79935,-0.5462 -1.67865,-0.8527 -2.59791,-0.8527 -3.8236,0 -6.92777,5.2492 -6.92777,11.7106 0,6.4615 3.10417,11.7106 6.92777,11.7106 0.91926,0 1.78523,-0.3064 2.59791,-0.8526 h 0.9992 18.94479 1.85185"
   class="st3"
   id="path94_5_" /><path
   style="fill:none;stroke:#ff0000;stroke-width:1.77630734;stroke-miterlimit:13.33329964;stroke-opacity:1"
   inkscape:connector-curvature="0"
   d="m 683.95313,508.58727 v 6.0352 17.759 1.8918 c -0.90594,1.2391 -1.42553,2.6246 -1.42553,4.0768 0,5.3424 6.75458,9.6722 15.09455,9.6722 8.33998,0 15.09455,-4.3298 15.09455,-9.6722 0,-1.4522 -0.51958,-2.8377 -1.42552,-4.0768 v -1.8918 -17.759 -6.0352"
   class="st3"
   id="path106_5_" /><path
   style="fill:none;stroke:#ff0000;stroke-width:1.77630734;stroke-miterlimit:13.33329964;stroke-opacity:1"
   inkscape:connector-curvature="0"
   d="m 910.73107,508.58727 v 6.0352 17.759 1.8918 c -0.90594,1.2391 -1.42552,2.6246 -1.42552,4.0768 0,5.3424 6.75458,9.6722 15.09455,9.6722 8.33997,0 15.09455,-4.3298 15.09455,-9.6722 0,-1.4522 -0.51959,-2.8377 -1.42553,-4.0768 v -1.8918 -17.759 -6.0352"
   class="st3"
   id="path110_5_" /><path
   style="fill:none;stroke:#ff0000;stroke-width:1.77630734;stroke-miterlimit:13.33329964;stroke-opacity:1"
   inkscape:connector-curvature="0"
   d="m 1210.5171,536.75137 h 1.8518 14.3485 5.5955 c 0.7994,0.5462 1.6653,0.8526 2.5846,0.8526 3.8236,0 6.9278,-5.2491 6.9278,-11.7106 0,-6.4615 -3.1042,-11.7106 -6.9278,-11.7106 -0.9193,0 -1.7852,0.3064 -2.5979,0.8527 h -0.9992 -18.9182 -1.8518"
   class="st3"
   id="path114_5_" /><path
   style="fill:none;stroke:#ff0000;stroke-width:1.77630734;stroke-miterlimit:13.33329964;stroke-opacity:1"
   inkscape:connector-curvature="0"
   d="m 1552.4825,539.57577 h 11.3376 16.4401 l -0.1598,0.373 -3.9835,18.1854 h 13.1628 v -17.386 c 4.5163,-1.2657 7.9536,-7.4208 7.9536,-14.8415 0,-7.4207 -3.4373,-13.5757 -7.9536,-14.8414 v -17.386 h -13.1628 l 3.9835,18.1854 0.1598,0.373 h -16.4401 -11.3376"
   class="st3"
   id="path122_5_" /><path
   style="fill:none;stroke:#ff0000;stroke-width:1.77630734;stroke-miterlimit:13.33329964;stroke-opacity:1"
   inkscape:connector-curvature="0"
   d="M 69.553029,539.57577 H 58.215465 41.775329 l 0.159872,0.373 3.983469,18.1854 H 32.755903 v -17.386 c -4.516374,-1.2657 -7.953615,-7.4208 -7.953615,-14.8415 0,-7.4207 3.437241,-13.5757 7.953615,-14.8414 v -17.386 H 45.91867 l -3.983469,18.1854 -0.159872,0.373 h 16.440136 11.337564"
   class="st3"
   id="path126_5_" /><path
   style="fill:none;stroke:#ff0000;stroke-width:1.77630734;stroke-miterlimit:13.33329964;stroke-opacity:1"
   inkscape:connector-curvature="0"
   d="m 242.33432,515.04877 h -1.85184 -14.34849 -5.5955 c -0.79936,-0.5462 -1.67866,-0.8527 -2.59792,-0.8527 -3.82359,0 -6.92777,5.2492 -6.92777,11.7106 0,6.4615 3.10418,11.7106 6.92777,11.7106 0.91926,0 1.78524,-0.3064 2.59792,-0.8526 h 0.99919 18.9448 1.85184"
   class="st3"
   id="path4780_5_" /><path
   style="fill:none;stroke:#ff0000;stroke-width:1.77630734;stroke-miterlimit:13.33329964;stroke-opacity:1"
   inkscape:connector-curvature="0"
   d="m 1379.6879,536.75137 h 1.8519 14.3485 5.5955 c 0.7993,0.5462 1.6653,0.8526 2.5846,0.8526 3.8236,0 6.9277,-5.2491 6.9277,-11.7106 0,-6.4615 -3.1041,-11.7106 -6.9277,-11.7106 -0.9193,0 -1.7853,0.3064 -2.5846,0.8527 h -0.9992 -18.9448 -1.8519"
   class="st3"
   id="path4794_5_" />
<path
   style="fill:none;stroke:#00ff00;stroke-width:1.77630734;stroke-miterlimit:13.33329964;stroke-opacity:1"
   inkscape:connector-curvature="0"
   d="m 12.865205,573.70837 c -6.5947055,0 -11.93708342,5.3423 -11.93708342,11.937 v 71.6092 c 0,6.5947 5.34237792,11.9371 11.93708342,11.9371 h 6.634673 22.088934 19.610923 31.827783 305.208312"
   class="st1"
   id="path4804_6_" /><path
   style="fill:none;stroke:#0000ff;stroke-width:1.77630734;stroke-miterlimit:13.33329964;stroke-opacity:1"
   inkscape:connector-curvature="0"
   d="M 398.23583,669.19167 H 1021.3756"
   class="st2"
   id="path4802_6_" /><path
   style="fill:none;stroke:#00ff00;stroke-width:1.77630734;stroke-miterlimit:13.33329964;stroke-opacity:1"
   inkscape:connector-curvature="0"
   d="m 1021.3756,669.19167 h 391.6855 34.2925 140.1542 16.7998 4.8628 c 6.5947,0 11.9371,-5.3424 11.9371,-11.9371 v -71.6092 c 0,-6.5947 -5.3424,-11.937 -11.9371,-11.937"
   class="st1"
   id="path82_6_" /><path
   style="fill:none;stroke:#ff0000;stroke-width:1.77630734;stroke-miterlimit:13.33329964;stroke-opacity:1"
   inkscape:connector-curvature="0"
   d="m 411.50518,610.53207 h -1.85185 -14.34848 -5.59551 c -0.79935,-0.5462 -1.67865,-0.8526 -2.59791,-0.8526 -3.8236,0 -6.92777,5.2491 -6.92777,11.7106 0,6.4615 3.10417,11.7106 6.92777,11.7106 0.91926,0 1.78523,-0.3064 2.59791,-0.8527 h 0.9992 18.94479 1.85185"
   class="st3"
   id="path94_6_" /><path
   style="fill:none;stroke:#ff0000;stroke-width:1.77630734;stroke-miterlimit:13.33329964;stroke-opacity:1"
   inkscape:connector-curvature="0"
   d="m 683.95313,604.05727 v 6.0352 17.7591 1.8918 c -0.90594,1.239 -1.42553,2.6245 -1.42553,4.0767 0,5.3424 6.75458,9.6722 15.09455,9.6722 8.33998,0 15.09455,-4.3298 15.09455,-9.6722 0,-1.4522 -0.51958,-2.8377 -1.42552,-4.0767 v -1.8918 -17.7591 -6.0352"
   class="st3"
   id="path106_6_" /><path
   style="fill:none;stroke:#ff0000;stroke-width:1.77630734;stroke-miterlimit:13.33329964;stroke-opacity:1"
   inkscape:connector-curvature="0"
   d="m 910.73107,604.05727 v 6.0352 17.7591 1.8918 c -0.90594,1.239 -1.42552,2.6245 -1.42552,4.0767 0,5.3424 6.75458,9.6722 15.09455,9.6722 8.33997,0 15.09455,-4.3298 15.09455,-9.6722 0,-1.4522 -0.51959,-2.8377 -1.42553,-4.0767 v -1.8918 -17.7591 -6.0352"
   class="st3"
   id="path110_6_" /><path
   style="fill:none;stroke:#ff0000;stroke-width:1.77630734;stroke-miterlimit:13.33329964;stroke-opacity:1"
   inkscape:connector-curvature="0"
   d="m 1210.5171,632.23467 h 1.8518 14.3485 5.5955 c 0.7994,0.5462 1.6653,0.8527 2.5846,0.8527 3.8236,0 6.9278,-5.2492 6.9278,-11.7106 0,-6.4615 -3.1042,-11.7106 -6.9278,-11.7106 -0.9193,0 -1.7852,0.3064 -2.5979,0.8526 h -0.9992 -18.9182 -1.8518"
   class="st3"
   id="path114_6_" /><path
   style="fill:none;stroke:#ff0000;stroke-width:1.77630734;stroke-miterlimit:13.33329964;stroke-opacity:1"
   inkscape:connector-curvature="0"
   d="m 1552.4825,635.05907 h 11.3376 16.4401 l -0.1598,0.373 -3.9835,18.1854 h 13.1628 v -17.386 c 4.5163,-1.2657 7.9536,-7.4207 7.9536,-14.8414 0,-7.4207 -3.4373,-13.5758 -7.9536,-14.8414 v -17.3994 h -13.1628 l 3.9835,18.1854 0.1598,0.373 h -16.4401 -11.3376"
   class="st3"
   id="path122_6_" /><path
   style="fill:none;stroke:#ff0000;stroke-width:1.77630734;stroke-miterlimit:13.33329964;stroke-opacity:1"
   inkscape:connector-curvature="0"
   d="M 69.553029,635.05907 H 58.215465 41.775329 l 0.159872,0.373 3.983469,18.1854 H 32.755903 v -17.386 c -4.516374,-1.2657 -7.953615,-7.4207 -7.953615,-14.8414 0,-7.4207 3.437241,-13.5758 7.953615,-14.8414 v -17.3994 H 45.91867 l -3.983469,18.1854 -0.159872,0.373 h 16.440136 11.337564"
   class="st3"
   id="path126_6_" /><path
   style="fill:none;stroke:#ff0000;stroke-width:1.77630734;stroke-miterlimit:13.33329964;stroke-opacity:1"
   inkscape:connector-curvature="0"
   d="m 242.33432,610.53207 h -1.85184 -14.34849 -5.5955 c -0.79936,-0.5462 -1.67866,-0.8526 -2.59792,-0.8526 -3.82359,0 -6.92777,5.2491 -6.92777,11.7106 0,6.4615 3.10418,11.7106 6.92777,11.7106 0.91926,0 1.78524,-0.3064 2.59792,-0.8527 h 0.99919 18.9448 1.85184"
   class="st3"
   id="path4780_6_" /><path
   style="fill:none;stroke:#ff0000;stroke-width:1.77630734;stroke-miterlimit:13.33329964;stroke-opacity:1"
   inkscape:connector-curvature="0"
   d="m 1379.6879,632.23467 h 1.8519 14.3485 5.5955 c 0.7993,0.5462 1.6653,0.8527 2.5846,0.8527 3.8236,0 6.9277,-5.2492 6.9277,-11.7106 0,-6.4615 -3.1041,-11.7106 -6.9277,-11.7106 -0.9193,0 -1.7853,0.3064 -2.5846,0.8526 h -0.9992 -18.9448 -1.8519"
   class="st3"
   id="path4794_6_" />
<path
   style="fill:none;stroke:#00ff00;stroke-width:1.77630734;stroke-miterlimit:13.33329964;stroke-opacity:1"
   inkscape:connector-curvature="0"
   d="m 12.865205,669.19167 c -6.5947055,0 -11.93708342,5.3424 -11.93708342,11.9371 v 71.6092 c 0,6.5947 5.34237792,11.9371 11.93708342,11.9371 h 6.634673 22.088934 19.610923 31.827783 305.208312"
   class="st1"
   id="path4804_7_" /><path
   style="fill:none;stroke:#00ffee;stroke-width:1.77630734;stroke-miterlimit:13.33329964;stroke-opacity:1"
   inkscape:connector-curvature="0"
   d="M 398.23583,764.67507 H 1021.3756"
   class="st0"
   id="path4802_7_" /><path
   style="fill:none;stroke:#00ff00;stroke-width:1.77630734;stroke-miterlimit:13.33329964;stroke-opacity:1"
   inkscape:connector-curvature="0"
   d="m 1021.3756,764.67507 h 391.6855 34.2925 140.1542 16.7998 4.8628 c 6.5947,0 11.9371,-5.3424 11.9371,-11.9371 v -71.6092 c 0,-6.5947 -5.3424,-11.9371 -11.9371,-11.9371"
   class="st1"
   id="path82_7_" /><path
   style="fill:none;stroke:#ff0000;stroke-width:1.77630734;stroke-miterlimit:13.33329964;stroke-opacity:1"
   inkscape:connector-curvature="0"
   d="m 411.50518,706.01547 h -1.85185 -14.34848 -5.59551 c -0.79935,-0.5463 -1.67865,-0.8527 -2.59791,-0.8527 -3.8236,0 -6.92777,5.2491 -6.92777,11.7106 0,6.4615 3.10417,11.7106 6.92777,11.7106 0.91926,0 1.78523,-0.3064 2.59791,-0.8526 h 0.9992 18.94479 1.85185"
   class="st3"
   id="path94_7_" /><path
   style="fill:none;stroke:#ff0000;stroke-width:1.77630734;stroke-miterlimit:13.33329964;stroke-opacity:1"
   inkscape:connector-curvature="0"
   d="m 683.95313,699.54067 v 6.0351 17.7591 1.8918 c -0.90594,1.239 -1.42553,2.6246 -1.42553,4.0767 0,5.3424 6.75458,9.6723 15.09455,9.6723 8.33998,0 15.09455,-4.3299 15.09455,-9.6723 0,-1.4521 -0.51958,-2.8377 -1.42552,-4.0767 v -1.8918 -17.7457 -6.0352"
   class="st3"
   id="path106_7_" /><path
   style="fill:none;stroke:#ff0000;stroke-width:1.77630734;stroke-miterlimit:13.33329964;stroke-opacity:1"
   inkscape:connector-curvature="0"
   d="m 910.73107,699.54067 v 6.0351 17.7591 1.8918 c -0.90594,1.239 -1.42552,2.6246 -1.42552,4.0767 0,5.3424 6.75458,9.6723 15.09455,9.6723 8.33997,0 15.09455,-4.3299 15.09455,-9.6723 0,-1.4521 -0.51959,-2.8377 -1.42553,-4.0767 v -1.8918 -17.7457 -6.0352"
   class="st3"
   id="path110_7_" /><path
   style="fill:none;stroke:#ff0000;stroke-width:1.77630734;stroke-miterlimit:13.33329964;stroke-opacity:1"
   inkscape:connector-curvature="0"
   d="m 1210.5171,727.71807 h 1.8518 14.3485 5.5955 c 0.7994,0.5462 1.6653,0.8526 2.5846,0.8526 3.8236,0 6.9278,-5.2491 6.9278,-11.7106 0,-6.4615 -3.1042,-11.7106 -6.9278,-11.7106 -0.9193,0 -1.7852,0.3064 -2.5979,0.8527 h -0.9992 -18.9182 -1.8518"
   class="st3"
   id="path114_7_" /><path
   style="fill:none;stroke:#ff0000;stroke-width:1.77630734;stroke-miterlimit:13.33329964;stroke-opacity:1"
   inkscape:connector-curvature="0"
   d="m 1552.4825,730.54247 h 11.3376 16.4401 l -0.1598,0.373 -3.9835,18.1854 h 13.1628 v -17.3994 c 4.5163,-1.2656 7.9536,-7.4207 7.9536,-14.8414 0,-7.4207 -3.4373,-13.5758 -7.9536,-14.8414 v -17.3861 h -13.1628 l 3.9835,18.1854 0.1598,0.3731 h -16.4401 -11.3376"
   class="st3"
   id="path122_7_" /><path
   style="fill:none;stroke:#ff0000;stroke-width:1.77630734;stroke-miterlimit:13.33329964;stroke-opacity:1"
   inkscape:connector-curvature="0"
   d="M 69.553029,730.54247 H 58.215465 41.775329 l 0.159872,0.373 3.983469,18.1854 H 32.755903 v -17.3994 c -4.516374,-1.2656 -7.953615,-7.4207 -7.953615,-14.8414 0,-7.4207 3.437241,-13.5758 7.953615,-14.8414 v -17.3861 H 45.91867 l -3.983469,18.1854 -0.159872,0.3731 h 16.440136 11.337564"
   class="st3"
   id="path126_7_" /><path
   style="fill:none;stroke:#ff0000;stroke-width:1.77630734;stroke-miterlimit:13.33329964;stroke-opacity:1"
   inkscape:connector-curvature="0"
   d="m 242.33432,706.01547 h -1.85184 -14.34849 -5.5955 c -0.79936,-0.5463 -1.67866,-0.8527 -2.59792,-0.8527 -3.82359,0 -6.92777,5.2491 -6.92777,11.7106 0,6.4615 3.10418,11.7106 6.92777,11.7106 0.91926,0 1.78524,-0.3064 2.59792,-0.8526 h 0.99919 18.9448 1.85184"
   class="st3"
   id="path4780_7_" /><path
   style="fill:none;stroke:#ff0000;stroke-width:1.77630734;stroke-miterlimit:13.33329964;stroke-opacity:1"
   inkscape:connector-curvature="0"
   d="m 1379.6879,727.71807 h 1.8519 14.3485 5.5955 c 0.7993,0.5462 1.6653,0.8526 2.5846,0.8526 3.8236,0 6.9277,-5.2491 6.9277,-11.7106 0,-6.4615 -3.1041,-11.7106 -6.9277,-11.7106 -0.9193,0 -1.7853,0.3064 -2.5846,0.8527 h -0.9992 -18.9448 -1.8519"
   class="st3"
   id="path4794_7_" />
<path
   style="fill:none;stroke:#00ff00;stroke-width:1.77630734;stroke-miterlimit:13.33329964;stroke-opacity:1"
   inkscape:connector-curvature="0"
   d="m 12.865205,764.67507 c -6.5947055,0 -11.93708342,5.3423 -11.93708342,11.937 v 71.6092 c 0,6.5947 5.34237792,11.9371 11.93708342,11.9371 h 6.634673 22.088934 19.610923 31.827783 305.208312"
   class="st1"
   id="path4804_8_" /><path
   style="fill:none;stroke:#0000ff;stroke-width:1.77630734;stroke-miterlimit:13.33329964;stroke-opacity:1"
   inkscape:connector-curvature="0"
   d="M 398.23583,860.15837 H 1021.3756"
   class="st2"
   id="path4802_8_" /><path
   style="fill:none;stroke:#00ff00;stroke-width:1.77630734;stroke-miterlimit:13.33329964;stroke-opacity:1"
   inkscape:connector-curvature="0"
   d="m 1021.3756,860.15837 h 391.6855 34.2925 140.1542 16.7998 4.8628 c 6.5947,0 11.9371,-5.3424 11.9371,-11.9371 v -71.6092 c 0,-6.5947 -5.3424,-11.937 -11.9371,-11.937"
   class="st1"
   id="path82_8_" /><path
   style="fill:none;stroke:#ff0000;stroke-width:1.77630734;stroke-miterlimit:13.33329964;stroke-opacity:1"
   inkscape:connector-curvature="0"
   d="m 411.50518,801.49877 h -1.85185 -14.34848 -5.59551 c -0.79935,-0.5462 -1.67865,-0.8526 -2.59791,-0.8526 -3.8236,0 -6.92777,5.2491 -6.92777,11.7106 0,6.4615 3.10417,11.7106 6.92777,11.7106 0.91926,0 1.78523,-0.3064 2.59791,-0.8527 h 0.9992 18.94479 1.85185"
   class="st3"
   id="path94_8_" /><path
   style="fill:none;stroke:#ff0000;stroke-width:1.77630734;stroke-miterlimit:13.33329964;stroke-opacity:1"
   inkscape:connector-curvature="0"
   d="m 683.95313,795.02397 v 6.0352 17.7591 1.8918 c -0.90594,1.239 -1.42553,2.6245 -1.42553,4.0767 0,5.3424 6.75458,9.6722 15.09455,9.6722 8.33998,0 15.09455,-4.3298 15.09455,-9.6722 0,-1.4522 -0.51958,-2.8377 -1.42552,-4.0767 v -1.8918 -17.7591 -6.0352"
   class="st3"
   id="path106_8_" /><path
   style="fill:none;stroke:#ff0000;stroke-width:1.77630734;stroke-miterlimit:13.33329964;stroke-opacity:1"
   inkscape:connector-curvature="0"
   d="m 910.73107,795.02397 v 6.0352 17.7591 1.8918 c -0.90594,1.239 -1.42552,2.6245 -1.42552,4.0767 0,5.3424 6.75458,9.6722 15.09455,9.6722 8.33997,0 15.09455,-4.3298 15.09455,-9.6722 0,-1.4522 -0.51959,-2.8377 -1.42553,-4.0767 v -1.8918 -17.7591 -6.0352"
   class="st3"
   id="path110_8_" /><path
   style="fill:none;stroke:#ff0000;stroke-width:1.77630734;stroke-miterlimit:13.33329964;stroke-opacity:1"
   inkscape:connector-curvature="0"
   d="m 1210.5171,823.20137 h 1.8518 14.3485 5.5955 c 0.7994,0.5462 1.6653,0.8526 2.5846,0.8526 3.8236,0 6.9278,-5.2491 6.9278,-11.7106 0,-6.4614 -3.1042,-11.7105 -6.9278,-11.7105 -0.9193,0 -1.7852,0.3064 -2.5979,0.8526 h -0.9992 -18.9182 -1.8518"
   class="st3"
   id="path114_8_" /><path
   style="fill:none;stroke:#ff0000;stroke-width:1.77630734;stroke-miterlimit:13.33329964;stroke-opacity:1"
   inkscape:connector-curvature="0"
   d="m 1552.4825,826.02577 h 11.3376 16.4401 l -0.1598,0.373 -3.9835,18.1854 h 13.1628 v -17.386 c 4.5163,-1.2657 7.9536,-7.4207 7.9536,-14.8414 0,-7.4207 -3.4373,-13.5758 -7.9536,-14.8414 v -17.3861 h -13.1628 l 3.9835,18.1854 0.1598,0.373 h -16.4401 -11.3376"
   class="st3"
   id="path122_8_" /><path
   style="fill:none;stroke:#ff0000;stroke-width:1.77630734;stroke-miterlimit:13.33329964;stroke-opacity:1"
   inkscape:connector-curvature="0"
   d="M 69.553029,826.02577 H 58.215465 41.775329 l 0.159872,0.373 3.983469,18.1854 H 32.755903 v -17.386 c -4.516374,-1.2657 -7.953615,-7.4207 -7.953615,-14.8414 0,-7.4207 3.437241,-13.5758 7.953615,-14.8414 v -17.3861 H 45.91867 l -3.983469,18.1854 -0.159872,0.373 h 16.440136 11.337564"
   class="st3"
   id="path126_8_" /><path
   style="fill:none;stroke:#ff0000;stroke-width:1.77630734;stroke-miterlimit:13.33329964;stroke-opacity:1"
   inkscape:connector-curvature="0"
   d="m 242.33432,801.49877 h -1.85184 -14.34849 -5.5955 c -0.79936,-0.5462 -1.67866,-0.8526 -2.59792,-0.8526 -3.82359,0 -6.92777,5.2491 -6.92777,11.7106 0,6.4615 3.10418,11.7106 6.92777,11.7106 0.91926,0 1.78524,-0.3064 2.59792,-0.8527 h 0.99919 18.9448 1.85184"
   class="st3"
   id="path4780_8_" /><path
   style="fill:none;stroke:#ff0000;stroke-width:1.77630734;stroke-miterlimit:13.33329964;stroke-opacity:1"
   inkscape:connector-curvature="0"
   d="m 1379.6879,823.20137 h 1.8519 14.3485 5.5955 c 0.7993,0.5462 1.6653,0.8526 2.5846,0.8526 3.8236,0 6.9277,-5.2491 6.9277,-11.7106 0,-6.4614 -3.1041,-11.7105 -6.9277,-11.7105 -0.9193,0 -1.7853,0.3064 -2.5846,0.8526 h -0.9992 -18.9448 -1.8519"
   class="st3"
   id="path4794_8_" />
<path
   style="fill:none;stroke:#00ff00;stroke-width:1.77630734;stroke-miterlimit:13.33329964;stroke-opacity:1"
   inkscape:connector-curvature="0"
   d="m 12.865205,860.15837 c -6.5947055,0 -11.93708342,5.3424 -11.93708342,11.9371 v 71.6092 c 0,6.5947 5.34237792,11.937 11.93708342,11.937 h 6.634673 22.088934 19.610923 31.827783 305.208312"
   class="st1"
   id="path4804_9_" /><path
   style="fill:none;stroke:#00ffee;stroke-width:1.77630734;stroke-miterlimit:13.33329964;stroke-opacity:1"
   inkscape:connector-curvature="0"
   d="M 398.23583,955.64167 H 1021.3756"
   class="st0"
   id="path4802_9_" /><path
   style="fill:none;stroke:#00ff00;stroke-width:1.77630734;stroke-miterlimit:13.33329964;stroke-opacity:1"
   inkscape:connector-curvature="0"
   d="m 1021.3756,955.64167 h 391.6855 34.2925 140.1542 16.7998 4.8628 c 6.5947,0 11.9371,-5.3423 11.9371,-11.937 v -71.6092 c 0,-6.5947 -5.3424,-11.9371 -11.9371,-11.9371"
   class="st1"
   id="path82_9_" /><path
   style="fill:none;stroke:#ff0000;stroke-width:1.77630734;stroke-miterlimit:13.33329964;stroke-opacity:1"
   inkscape:connector-curvature="0"
   d="m 411.50518,896.98217 h -1.85185 -14.34848 -5.59551 c -0.79935,-0.5463 -1.67865,-0.8527 -2.59791,-0.8527 -3.8236,0 -6.92777,5.2491 -6.92777,11.7106 0,6.4615 3.10417,11.7106 6.92777,11.7106 0.91926,0 1.78523,-0.3064 2.59791,-0.8526 h 0.9992 18.94479 1.85185"
   class="st3"
   id="path94_9_" /><path
   style="fill:none;stroke:#ff0000;stroke-width:1.77630734;stroke-miterlimit:13.33329964;stroke-opacity:1"
   inkscape:connector-curvature="0"
   d="m 683.95313,890.50737 v 6.0351 17.7591 1.8918 c -0.90594,1.239 -1.42553,2.6246 -1.42553,4.0767 0,5.3424 6.75458,9.6723 15.09455,9.6723 8.33998,0 15.09455,-4.3299 15.09455,-9.6723 0,-1.4521 -0.51958,-2.8377 -1.42552,-4.0767 v -1.8918 -17.7591 -6.0351"
   class="st3"
   id="path106_9_" /><path
   style="fill:none;stroke:#ff0000;stroke-width:1.77630734;stroke-miterlimit:13.33329964;stroke-opacity:1"
   inkscape:connector-curvature="0"
   d="m 910.73107,890.50737 v 6.0351 17.7591 1.8918 c -0.90594,1.239 -1.42552,2.6246 -1.42552,4.0767 0,5.3424 6.75458,9.6723 15.09455,9.6723 8.33997,0 15.09455,-4.3299 15.09455,-9.6723 0,-1.4521 -0.51959,-2.8377 -1.42553,-4.0767 v -1.8918 -17.7591 -6.0351"
   class="st3"
   id="path110_9_" /><path
   style="fill:none;stroke:#ff0000;stroke-width:1.77630734;stroke-miterlimit:13.33329964;stroke-opacity:1"
   inkscape:connector-curvature="0"
   d="m 1210.5171,918.68467 h 1.8518 14.3485 5.5955 c 0.7994,0.5463 1.6653,0.8527 2.5846,0.8527 3.8236,0 6.9278,-5.2491 6.9278,-11.7106 0,-6.4615 -3.1042,-11.7106 -6.9278,-11.7106 -0.9193,0 -1.7852,0.3064 -2.5979,0.8526 h -0.9992 -18.9182 -1.8518"
   class="st3"
   id="path114_9_" /><path
   style="fill:none;stroke:#ff0000;stroke-width:1.77630734;stroke-miterlimit:13.33329964;stroke-opacity:1"
   inkscape:connector-curvature="0"
   d="m 1552.4825,921.50907 h 11.3376 16.4401 l -0.1598,0.3731 -3.9835,18.1854 h 13.1628 v -17.3861 c 4.5163,-1.2656 7.9536,-7.4207 7.9536,-14.8414 0,-7.4207 -3.4373,-13.5757 -7.9536,-14.8414 v -17.386 h -13.1628 l 3.9835,18.1854 0.1598,0.373 h -16.4401 -11.3376"
   class="st3"
   id="path122_9_" /><path
   style="fill:none;stroke:#ff0000;stroke-width:1.77630734;stroke-miterlimit:13.33329964;stroke-opacity:1"
   inkscape:connector-curvature="0"
   d="M 69.553029,921.50907 H 58.215465 41.775329 l 0.159872,0.3731 3.983469,18.1854 H 32.755903 v -17.3861 c -4.516374,-1.2656 -7.953615,-7.4207 -7.953615,-14.8414 0,-7.4207 3.437241,-13.5757 7.953615,-14.8414 v -17.386 H 45.91867 l -3.983469,18.1854 -0.159872,0.373 h 16.440136 11.337564"
   class="st3"
   id="path126_9_" /><path
   style="fill:none;stroke:#ff0000;stroke-width:1.77630734;stroke-miterlimit:13.33329964;stroke-opacity:1"
   inkscape:connector-curvature="0"
   d="m 242.33432,896.98217 h -1.85184 -14.34849 -5.5955 c -0.79936,-0.5463 -1.67866,-0.8527 -2.59792,-0.8527 -3.82359,0 -6.92777,5.2491 -6.92777,11.7106 0,6.4615 3.10418,11.7106 6.92777,11.7106 0.91926,0 1.78524,-0.3064 2.59792,-0.8526 h 0.99919 18.9448 1.85184"
   class="st3"
   id="path4780_9_" /><path
   style="fill:none;stroke:#ff0000;stroke-width:1.77630734;stroke-miterlimit:13.33329964;stroke-opacity:1"
   inkscape:connector-curvature="0"
   d="m 1379.6879,918.68467 h 1.8519 14.3485 5.5955 c 0.7993,0.5463 1.6653,0.8527 2.5846,0.8527 3.8236,0 6.9277,-5.2491 6.9277,-11.7106 0,-6.4615 -3.1041,-11.7106 -6.9277,-11.7106 -0.9193,0 -1.7853,0.3064 -2.5846,0.8526 h -0.9992 -18.9448 -1.8519"
   class="st3"
   id="path4794_9_" />
<path
   style="fill:none;stroke:#00ff00;stroke-width:1.77630734;stroke-miterlimit:13.33329964;stroke-opacity:1"
   inkscape:connector-curvature="0"
   d="m 12.865205,955.64167 c -6.5947055,0 -11.93708342,5.3424 -11.93708342,11.9371 v 71.60933 c 0,6.5947 5.34237792,11.9371 11.93708342,11.9371 h 6.634673 22.088934 19.610923 31.827783 305.208312"
   class="st1"
   id="path4804_10_" /><path
   style="fill:none;stroke:#0000ff;stroke-width:1.77630734;stroke-miterlimit:13.33329964;stroke-opacity:1"
   inkscape:connector-curvature="0"
   d="M 398.23583,1051.1252 H 1021.3756"
   class="st2"
   id="path4802_10_" /><path
   style="fill:none;stroke:#00ff00;stroke-width:1.77630734;stroke-miterlimit:13.33329964;stroke-opacity:1"
   inkscape:connector-curvature="0"
   d="m 1021.3756,1051.1252 h 391.6855 34.2925 140.1542 16.7998 4.8628 c 6.5947,0 11.9371,-5.3424 11.9371,-11.9371 v -71.60933 c 0,-6.5947 -5.3424,-11.9371 -11.9371,-11.9371"
   class="st1"
   id="path82_10_" /><path
   style="fill:none;stroke:#ff0000;stroke-width:1.77630734;stroke-miterlimit:13.33329964;stroke-opacity:1"
   inkscape:connector-curvature="0"
   d="m 411.50518,992.45217 h -1.85185 -14.34848 -5.59551 c -0.79935,-0.5462 -1.67865,-0.8527 -2.59791,-0.8527 -3.8236,0 -6.92777,5.2492 -6.92777,11.71073 0,6.4615 3.10417,11.7106 6.92777,11.7106 0.91926,0 1.78523,-0.3064 2.59791,-0.8526 h 0.9992 18.94479 1.85185"
   class="st3"
   id="path94_10_" /><path
   style="fill:none;stroke:#ff0000;stroke-width:1.77630734;stroke-miterlimit:13.33329964;stroke-opacity:1"
   inkscape:connector-curvature="0"
   d="m 683.95313,985.99067 v 6.0352 17.75913 1.8918 c -0.90594,1.239 -1.42553,2.6246 -1.42553,4.0768 0,5.3423 6.75458,9.6722 15.09455,9.6722 8.33998,0 15.09455,-4.3299 15.09455,-9.6722 0,-1.4522 -0.51958,-2.8378 -1.42552,-4.0768 v -1.8918 -17.75913 -6.0352"
   class="st3"
   id="path106_10_" /><path
   style="fill:none;stroke:#ff0000;stroke-width:1.77630734;stroke-miterlimit:13.33329964;stroke-opacity:1"
   inkscape:connector-curvature="0"
   d="m 910.73107,985.99067 v 6.0352 17.75913 1.8918 c -0.90594,1.239 -1.42552,2.6246 -1.42552,4.0768 0,5.3423 6.75458,9.6722 15.09455,9.6722 8.33997,0 15.09455,-4.3299 15.09455,-9.6722 0,-1.4522 -0.51959,-2.8378 -1.42553,-4.0768 v -1.8918 -17.75913 -6.0352"
   class="st3"
   id="path110_10_" /><path
   style="fill:none;stroke:#ff0000;stroke-width:1.77630734;stroke-miterlimit:13.33329964;stroke-opacity:1"
   inkscape:connector-curvature="0"
   d="m 1210.5171,1014.1682 h 1.8518 14.3485 5.5955 c 0.7994,0.5462 1.6653,0.8526 2.5846,0.8526 3.8236,0 6.9278,-5.2491 6.9278,-11.7106 0,-6.46153 -3.1042,-11.71073 -6.9278,-11.71073 -0.9193,0 -1.7852,0.3065 -2.5979,0.8527 h -0.9992 -18.9182 -1.8518"
   class="st3"
   id="path114_10_" /><path
   style="fill:none;stroke:#ff0000;stroke-width:1.77630734;stroke-miterlimit:13.33329964;stroke-opacity:1"
   inkscape:connector-curvature="0"
   d="m 1552.4825,1016.9792 h 11.3376 16.4401 l -0.1598,0.3731 -3.9835,18.1854 h 13.1628 v -17.3861 c 4.5163,-1.2656 7.9536,-7.4207 7.9536,-14.8414 0,-7.42083 -3.4373,-13.57583 -7.9536,-14.84153 v -17.386 h -13.1628 l 3.9835,18.1854 0.1598,0.373 h -16.4401 -11.3376"
   class="st3"
   id="path122_10_" /><path
   style="fill:none;stroke:#ff0000;stroke-width:1.77630734;stroke-miterlimit:13.33329964;stroke-opacity:1"
   inkscape:connector-curvature="0"
   d="M 69.553029,1016.9792 H 58.215465 41.775329 l 0.159872,0.3731 3.983469,18.1854 H 32.755903 v -17.3861 c -4.516374,-1.2656 -7.953615,-7.4207 -7.953615,-14.8414 0,-7.42083 3.437241,-13.57583 7.953615,-14.84153 v -17.386 H 45.91867 l -3.983469,18.1854 -0.159872,0.373 h 16.440136 11.337564"
   class="st3"
   id="path126_10_" /><path
   style="fill:none;stroke:#ff0000;stroke-width:1.77630734;stroke-miterlimit:13.33329964;stroke-opacity:1"
   inkscape:connector-curvature="0"
   d="m 242.33432,992.45217 h -1.85184 -14.34849 -5.5955 c -0.79936,-0.5462 -1.67866,-0.8527 -2.59792,-0.8527 -3.82359,0 -6.92777,5.2492 -6.92777,11.71073 0,6.4615 3.10418,11.7106 6.92777,11.7106 0.91926,0 1.78524,-0.3064 2.59792,-0.8526 h 0.99919 18.9448 1.85184"
   class="st3"
   id="path4780_10_" /><path
   style="fill:none;stroke:#ff0000;stroke-width:1.77630734;stroke-miterlimit:13.33329964;stroke-opacity:1"
   inkscape:connector-curvature="0"
   d="m 1379.6879,1014.1682 h 1.8519 14.3485 5.5955 c 0.7993,0.5462 1.6653,0.8526 2.5846,0.8526 3.8236,0 6.9277,-5.2491 6.9277,-11.7106 0,-6.46153 -3.1041,-11.71073 -6.9277,-11.71073 -0.9193,0 -1.7853,0.3065 -2.5846,0.8527 h -0.9992 -18.9448 -1.8519"
   class="st3"
   id="path4794_10_" />
<path
   style="fill:none;stroke:#00ffee;stroke-width:1.77630734;stroke-miterlimit:13.33329964;stroke-opacity:1"
   inkscape:connector-curvature="0"
   d="M 2222.7311,792.05307 V 426.53317"
   class="st0"
   id="path4798_1_" /><path
   style="fill:none;stroke:#00ff00;stroke-width:1.77630734;stroke-miterlimit:13.33329964;stroke-opacity:1"
   inkscape:connector-curvature="0"
   d="m 2222.7311,426.53317 v -335.717196 -33.6263 -44.3644 c 0,-6.5946998 -5.3423,-11.9370998 -11.937,-11.9370998 h -71.6092 c -6.5947,0 -11.9371,5.3424 -11.9371,11.9370998 v 44.3511 33.6396 322.914096"
   class="st1"
   id="path4812_11_" /><path
   style="fill:none;stroke:#0000ff;stroke-width:1.77630734;stroke-miterlimit:13.33329964;stroke-opacity:1"
   inkscape:connector-curvature="0"
   d="m 2127.2478,413.73007 v 379.3088"
   class="st2"
   id="path4810_11_" /><path
   style="fill:none;stroke:#00ff00;stroke-width:1.77630734;stroke-miterlimit:13.33329964;stroke-opacity:1"
   inkscape:connector-curvature="0"
   d="m 2127.2478,793.03887 v 320.10313 47.7484 161.8167 c 0,6.5947 5.3424,11.9371 11.9371,11.9371 h 71.6092 c 6.5947,0 11.937,-5.3424 11.937,-11.9371 V 1160.877 1113.1287 792.05307"
   class="st1"
   id="path22_21_" /><path
   style="fill:none;stroke:#00ffee;stroke-width:1.77630734;stroke-miterlimit:13.33329964;stroke-opacity:1"
   inkscape:connector-curvature="0"
   d="m 2201.046,1304.7882 v 5.9685 h -52.1131 v -5.9685 z"
   class="st0"
   id="path24_11_"
   sodipodi:nodetypes="ccccc" /><path
   style="fill:none;stroke:#00ffee;stroke-width:1.77630734;stroke-miterlimit:13.33329964;stroke-opacity:1"
   inkscape:connector-curvature="0"
   d="m 2201.046,24.762374 v 5.9685 h -52.1131 v -5.9685 z"
   class="st0"
   id="path34_11_"
   sodipodi:nodetypes="ccccc" /><path
   style="fill:none;stroke:#ff0000;stroke-width:1.77630734;stroke-miterlimit:13.33329964;stroke-opacity:1"
   inkscape:connector-curvature="0"
   d="m 2174.9961,1004.3627 c 13.1761,0 23.8742,-10.68483 23.8742,-23.87423 0,-13.1894 -10.6848,-23.8742 -23.8742,-23.8742 -13.1894,0 -23.8741,10.6848 -23.8741,23.8742 0,13.1894 10.6847,23.87423 23.8741,23.87423 z"
   class="st3"
   id="path38_11_" /><path
   style="fill:none;stroke:#ff0000;stroke-width:1.77630734;stroke-miterlimit:13.33329964;stroke-opacity:1"
   inkscape:connector-curvature="0"
   d="m 2174.9961,879.27637 c 13.1761,0 23.8742,-10.6848 23.8742,-23.8742 0,-13.1761 -10.6848,-23.8742 -23.8742,-23.8742 -13.1894,0 -23.8741,10.6848 -23.8741,23.8742 0,13.1761 10.6847,23.8742 23.8741,23.8742 z"
   class="st3"
   id="path46_11_" /><path
   style="fill:none;stroke:#ff0000;stroke-width:1.77630734;stroke-miterlimit:13.33329964;stroke-opacity:1"
   inkscape:connector-curvature="0"
   d="m 2174.9961,754.19007 c 13.1761,0 23.8742,-10.6847 23.8742,-23.8741 0,-13.1894 -10.6848,-23.8742 -23.8742,-23.8742 -13.1894,0 -23.8741,10.6848 -23.8741,23.8742 0,13.1761 10.6847,23.8741 23.8741,23.8741 z"
   class="st3"
   id="path54_11_" /><path
   style="fill:none;stroke:#ff0000;stroke-width:1.77630734;stroke-miterlimit:13.33329964;stroke-opacity:1"
   inkscape:connector-curvature="0"
   d="m 2174.9961,629.09057 c 13.1761,0 23.8742,-10.6848 23.8742,-23.8742 0,-13.1894 -10.6848,-23.8742 -23.8742,-23.8742 -13.1894,0 -23.8741,10.6848 -23.8741,23.8742 0,13.1894 10.6847,23.8742 23.8741,23.8742 z"
   class="st3"
   id="path62_11_" /><path
   style="fill:none;stroke:#ff0000;stroke-width:1.77630734;stroke-miterlimit:13.33329964;stroke-opacity:1"
   inkscape:connector-curvature="0"
   d="m 2174.9961,504.00427 c 13.1761,0 23.8742,-10.6847 23.8742,-23.8742 0,-13.1894 -10.6848,-23.8741 -23.8742,-23.8741 -13.1894,0 -23.8741,10.6847 -23.8741,23.8741 0,13.1761 10.6847,23.8742 23.8741,23.8742 z"
   class="st3"
   id="path70_11_" /><path
   style="fill:none;stroke:#ff0000;stroke-width:1.77630734;stroke-miterlimit:13.33329964;stroke-opacity:1"
   inkscape:connector-curvature="0"
   d="m 2174.9961,378.90467 c 13.1761,0 23.8742,-10.6847 23.8742,-23.8741 0,-13.1894 -10.6848,-23.8742 -23.8742,-23.8742 -13.1894,0 -23.8741,10.6848 -23.8741,23.8742 0,13.1894 10.6847,23.8741 23.8741,23.8741 z"
   class="st3"
   id="path78_11_" />
<path
   style="fill:none;stroke:#00ff00;stroke-width:1.77630734;stroke-miterlimit:13.33329964;stroke-opacity:1"
   inkscape:connector-curvature="0"
   d="m 2127.2478,12.825274 c 0,-6.5946998 -5.3424,-11.9370998 -11.9371,-11.9370998 h -71.6092 c -6.5947,0 -11.9371,5.3424 -11.9371,11.9370998 v 44.3511 33.6396 322.914096"
   class="st1"
   id="path4812_10_" /><path
   style="fill:none;stroke:#00ffee;stroke-width:1.77630734;stroke-miterlimit:13.33329964;stroke-opacity:1"
   inkscape:connector-curvature="0"
   d="m 2031.7644,413.73007 v 379.3088"
   class="st0"
   id="path4810_10_" /><path
   style="fill:none;stroke:#00ff00;stroke-width:1.77630734;stroke-miterlimit:13.33329964;stroke-opacity:1"
   inkscape:connector-curvature="0"
   d="m 2031.7644,793.03887 v 320.10313 47.7484 161.8167 c 0,6.5947 5.3424,11.9371 11.9371,11.9371 h 71.6092 c 6.5947,0 11.9371,-5.3424 11.9371,-11.9371"
   class="st1"
   id="path22_19_" /><path
   style="fill:none;stroke:#00ffee;stroke-width:1.77630734;stroke-miterlimit:13.33329964;stroke-opacity:1"
   inkscape:connector-curvature="0"
   d="m 2105.5627,1304.7882 v 5.9685 h -52.1131 v -5.9685 z"
   class="st0"
   id="path24_10_"
   sodipodi:nodetypes="ccccc" /><path
   style="fill:none;stroke:#00ffee;stroke-width:1.77630734;stroke-miterlimit:13.33329964;stroke-opacity:1"
   inkscape:connector-curvature="0"
   d="m 2105.5627,24.762374 v 5.9685 h -52.1131 v -5.9685 z"
   class="st0"
   id="path34_10_"
   sodipodi:nodetypes="ccccc" /><path
   style="fill:none;stroke:#ff0000;stroke-width:1.77630734;stroke-miterlimit:13.33329964;stroke-opacity:1"
   inkscape:connector-curvature="0"
   d="m 2079.5128,1004.3627 c 13.1761,0 23.8741,-10.68483 23.8741,-23.87423 0,-13.1894 -10.6847,-23.8742 -23.8741,-23.8742 -13.1894,0 -23.8742,10.6848 -23.8742,23.8742 0,13.1894 10.6848,23.87423 23.8742,23.87423 z"
   class="st3"
   id="path38_10_" /><path
   style="fill:none;stroke:#ff0000;stroke-width:1.77630734;stroke-miterlimit:13.33329964;stroke-opacity:1"
   inkscape:connector-curvature="0"
   d="m 2079.5128,879.27637 c 13.1761,0 23.8741,-10.6848 23.8741,-23.8742 0,-13.1761 -10.6847,-23.8742 -23.8741,-23.8742 -13.1894,0 -23.8742,10.6848 -23.8742,23.8742 0,13.1761 10.6848,23.8742 23.8742,23.8742 z"
   class="st3"
   id="path46_10_" /><path
   style="fill:none;stroke:#ff0000;stroke-width:1.77630734;stroke-miterlimit:13.33329964;stroke-opacity:1"
   inkscape:connector-curvature="0"
   d="m 2079.5128,754.19007 c 13.1761,0 23.8741,-10.6847 23.8741,-23.8741 0,-13.1894 -10.6847,-23.8742 -23.8741,-23.8742 -13.1894,0 -23.8742,10.6848 -23.8742,23.8742 0,13.1761 10.6848,23.8741 23.8742,23.8741 z"
   class="st3"
   id="path54_10_" /><path
   style="fill:none;stroke:#ff0000;stroke-width:1.77630734;stroke-miterlimit:13.33329964;stroke-opacity:1"
   inkscape:connector-curvature="0"
   d="m 2079.5128,629.09057 c 13.1761,0 23.8741,-10.6848 23.8741,-23.8742 0,-13.1894 -10.6847,-23.8742 -23.8741,-23.8742 -13.1894,0 -23.8742,10.6848 -23.8742,23.8742 0,13.1894 10.6848,23.8742 23.8742,23.8742 z"
   class="st3"
   id="path62_10_" /><path
   style="fill:none;stroke:#ff0000;stroke-width:1.77630734;stroke-miterlimit:13.33329964;stroke-opacity:1"
   inkscape:connector-curvature="0"
   d="m 2079.5128,504.00427 c 13.1761,0 23.8741,-10.6847 23.8741,-23.8742 0,-13.1894 -10.6847,-23.8741 -23.8741,-23.8741 -13.1894,0 -23.8742,10.6847 -23.8742,23.8741 0,13.1761 10.6848,23.8742 23.8742,23.8742 z"
   class="st3"
   id="path70_10_" /><path
   style="fill:none;stroke:#ff0000;stroke-width:1.77630734;stroke-miterlimit:13.33329964;stroke-opacity:1"
   inkscape:connector-curvature="0"
   d="m 2079.5128,378.90467 c 13.1761,0 23.8741,-10.6847 23.8741,-23.8741 0,-13.1894 -10.6847,-23.8742 -23.8741,-23.8742 -13.1894,0 -23.8742,10.6848 -23.8742,23.8742 0,13.1894 10.6848,23.8741 23.8742,23.8741 z"
   class="st3"
   id="path78_10_" />
<path
   style="fill:none;stroke:#00ff00;stroke-width:1.77630734;stroke-miterlimit:13.33329964;stroke-opacity:1"
   inkscape:connector-curvature="0"
   d="m 2031.7644,12.825274 c 0,-6.5946998 -5.3423,-11.9370998 -11.937,-11.9370998 h -71.6092 c -6.5947,0 -11.9371,5.3424 -11.9371,11.9370998 v 44.3511 33.6396 322.914096"
   class="st1"
   id="path4812_9_" /><path
   style="fill:none;stroke:#0000ff;stroke-width:1.77630734;stroke-miterlimit:13.33329964;stroke-opacity:1"
   inkscape:connector-curvature="0"
   d="m 1936.2811,413.73007 v 379.3088"
   class="st2"
   id="path4810_9_" /><path
   style="fill:none;stroke:#00ff00;stroke-width:1.77630734;stroke-miterlimit:13.33329964;stroke-opacity:1"
   inkscape:connector-curvature="0"
   d="m 1936.2811,793.03887 v 320.10313 47.7484 161.8167 c 0,6.5947 5.3424,11.9371 11.9371,11.9371 h 71.6092 c 6.5947,0 11.937,-5.3424 11.937,-11.9371"
   class="st1"
   id="path22_17_" /><path
   style="fill:none;stroke:#00ffee;stroke-width:1.77630734;stroke-miterlimit:13.33329964;stroke-opacity:1"
   inkscape:connector-curvature="0"
   d="m 2010.0793,1304.7882 v 5.9685 h -52.1131 v -5.9685 z"
   class="st0"
   id="path24_9_"
   sodipodi:nodetypes="ccccc" /><path
   style="fill:none;stroke:#00ffee;stroke-width:1.77630734;stroke-miterlimit:13.33329964;stroke-opacity:1"
   inkscape:connector-curvature="0"
   d="m 2010.0793,24.762374 v 5.9685 h -52.1131 v -5.9685 z"
   class="st0"
   id="path34_9_"
   sodipodi:nodetypes="ccccc" /><path
   style="fill:none;stroke:#ff0000;stroke-width:1.77630734;stroke-miterlimit:13.33329964;stroke-opacity:1"
   inkscape:connector-curvature="0"
   d="m 1984.0294,1004.3627 c 13.1761,0 23.8742,-10.68483 23.8742,-23.87423 0,-13.1894 -10.6848,-23.8742 -23.8742,-23.8742 -13.1894,0 -23.8741,10.6848 -23.8741,23.8742 0,13.1894 10.6847,23.87423 23.8741,23.87423 z"
   class="st3"
   id="path38_9_" /><path
   style="fill:none;stroke:#ff0000;stroke-width:1.77630734;stroke-miterlimit:13.33329964;stroke-opacity:1"
   inkscape:connector-curvature="0"
   d="m 1984.0294,879.27637 c 13.1761,0 23.8742,-10.6848 23.8742,-23.8742 0,-13.1761 -10.6848,-23.8742 -23.8742,-23.8742 -13.1894,0 -23.8741,10.6848 -23.8741,23.8742 0,13.1761 10.6847,23.8742 23.8741,23.8742 z"
   class="st3"
   id="path46_9_" /><path
   style="fill:none;stroke:#ff0000;stroke-width:1.77630734;stroke-miterlimit:13.33329964;stroke-opacity:1"
   inkscape:connector-curvature="0"
   d="m 1984.0294,754.19007 c 13.1761,0 23.8742,-10.6847 23.8742,-23.8741 0,-13.1894 -10.6848,-23.8742 -23.8742,-23.8742 -13.1894,0 -23.8741,10.6848 -23.8741,23.8742 0,13.1761 10.6847,23.8741 23.8741,23.8741 z"
   class="st3"
   id="path54_9_" /><path
   style="fill:none;stroke:#ff0000;stroke-width:1.77630734;stroke-miterlimit:13.33329964;stroke-opacity:1"
   inkscape:connector-curvature="0"
   d="m 1984.0294,629.09057 c 13.1761,0 23.8742,-10.6848 23.8742,-23.8742 0,-13.1894 -10.6848,-23.8742 -23.8742,-23.8742 -13.1894,0 -23.8741,10.6848 -23.8741,23.8742 0,13.1894 10.6847,23.8742 23.8741,23.8742 z"
   class="st3"
   id="path62_9_" /><path
   style="fill:none;stroke:#ff0000;stroke-width:1.77630734;stroke-miterlimit:13.33329964;stroke-opacity:1"
   inkscape:connector-curvature="0"
   d="m 1984.0294,504.00427 c 13.1761,0 23.8742,-10.6847 23.8742,-23.8742 0,-13.1894 -10.6848,-23.8741 -23.8742,-23.8741 -13.1894,0 -23.8741,10.6847 -23.8741,23.8741 0,13.1761 10.6847,23.8742 23.8741,23.8742 z"
   class="st3"
   id="path70_9_" /><path
   style="fill:none;stroke:#ff0000;stroke-width:1.77630734;stroke-miterlimit:13.33329964;stroke-opacity:1"
   inkscape:connector-curvature="0"
   d="m 1984.0294,378.90467 c 13.1761,0 23.8742,-10.6847 23.8742,-23.8741 0,-13.1894 -10.6848,-23.8742 -23.8742,-23.8742 -13.1894,0 -23.8741,10.6848 -23.8741,23.8742 0,13.1894 10.6847,23.8741 23.8741,23.8741 z"
   class="st3"
   id="path78_9_" />
<path
   style="fill:none;stroke:#00ff00;stroke-width:1.77630734;stroke-miterlimit:13.33329964;stroke-opacity:1"
   inkscape:connector-curvature="0"
   d="m 1936.2811,12.825274 c 0,-6.5946998 -5.3424,-11.9370998 -11.9371,-11.9370998 h -71.6092 c -6.5947,0 -11.937,5.3424 -11.937,11.9370998 v 44.3511 33.6396 322.914096"
   class="st1"
   id="path4812_8_" /><path
   style="fill:none;stroke:#00ffee;stroke-width:1.77630734;stroke-miterlimit:13.33329964;stroke-opacity:1"
   inkscape:connector-curvature="0"
   d="m 1840.7978,413.73007 v 379.3088"
   class="st0"
   id="path4810_8_" /><path
   style="fill:none;stroke:#00ff00;stroke-width:1.77630734;stroke-miterlimit:13.33329964;stroke-opacity:1"
   inkscape:connector-curvature="0"
   d="m 1840.7978,793.03887 v 320.10313 47.7484 161.8167 c 0,6.5947 5.3423,11.9371 11.937,11.9371 h 71.6092 c 6.5947,0 11.9371,-5.3424 11.9371,-11.9371"
   class="st1"
   id="path22_15_" /><path
   style="fill:none;stroke:#00ffee;stroke-width:1.77630734;stroke-miterlimit:13.33329964;stroke-opacity:1"
   inkscape:connector-curvature="0"
   d="m 1914.596,1304.7882 v 5.9685 h -52.1131 v -5.9685 z"
   class="st0"
   id="path24_8_"
   sodipodi:nodetypes="ccccc" /><path
   style="fill:none;stroke:#00ffee;stroke-width:1.77630734;stroke-miterlimit:13.33329964;stroke-opacity:1"
   inkscape:connector-curvature="0"
   d="m 1914.596,24.762374 v 5.9685 h -52.1131 v -5.9685 z"
   class="st0"
   id="path34_8_"
   sodipodi:nodetypes="ccccc" /><path
   style="fill:none;stroke:#ff0000;stroke-width:1.77630734;stroke-miterlimit:13.33329964;stroke-opacity:1"
   inkscape:connector-curvature="0"
   d="m 1888.5461,1004.3627 c 13.1761,0 23.8742,-10.68483 23.8742,-23.87423 0,-13.1894 -10.6848,-23.8742 -23.8742,-23.8742 -13.1894,0 -23.8742,10.6848 -23.8742,23.8742 0,13.1894 10.6848,23.87423 23.8742,23.87423 z"
   class="st3"
   id="path38_8_" /><path
   style="fill:none;stroke:#ff0000;stroke-width:1.77630734;stroke-miterlimit:13.33329964;stroke-opacity:1"
   inkscape:connector-curvature="0"
   d="m 1888.5461,879.27637 c 13.1761,0 23.8742,-10.6848 23.8742,-23.8742 0,-13.1761 -10.6848,-23.8742 -23.8742,-23.8742 -13.1894,0 -23.8742,10.6848 -23.8742,23.8742 0,13.1761 10.6848,23.8742 23.8742,23.8742 z"
   class="st3"
   id="path46_8_" /><path
   style="fill:none;stroke:#ff0000;stroke-width:1.77630734;stroke-miterlimit:13.33329964;stroke-opacity:1"
   inkscape:connector-curvature="0"
   d="m 1888.5461,754.19007 c 13.1761,0 23.8742,-10.6847 23.8742,-23.8741 0,-13.1894 -10.6848,-23.8742 -23.8742,-23.8742 -13.1894,0 -23.8742,10.6848 -23.8742,23.8742 0,13.1761 10.6848,23.8741 23.8742,23.8741 z"
   class="st3"
   id="path54_8_" /><path
   style="fill:none;stroke:#ff0000;stroke-width:1.77630734;stroke-miterlimit:13.33329964;stroke-opacity:1"
   inkscape:connector-curvature="0"
   d="m 1888.5461,629.09057 c 13.1761,0 23.8742,-10.6848 23.8742,-23.8742 0,-13.1894 -10.6848,-23.8742 -23.8742,-23.8742 -13.1894,0 -23.8742,10.6848 -23.8742,23.8742 0,13.1894 10.6848,23.8742 23.8742,23.8742 z"
   class="st3"
   id="path62_8_" /><path
   style="fill:none;stroke:#ff0000;stroke-width:1.77630734;stroke-miterlimit:13.33329964;stroke-opacity:1"
   inkscape:connector-curvature="0"
   d="m 1888.5461,504.00427 c 13.1761,0 23.8742,-10.6847 23.8742,-23.8742 0,-13.1894 -10.6848,-23.8741 -23.8742,-23.8741 -13.1894,0 -23.8742,10.6847 -23.8742,23.8741 0,13.1761 10.6848,23.8742 23.8742,23.8742 z"
   class="st3"
   id="path70_8_" /><path
   style="fill:none;stroke:#ff0000;stroke-width:1.77630734;stroke-miterlimit:13.33329964;stroke-opacity:1"
   inkscape:connector-curvature="0"
   d="m 1888.5461,378.90467 c 13.1761,0 23.8742,-10.6847 23.8742,-23.8741 0,-13.1894 -10.6848,-23.8742 -23.8742,-23.8742 -13.1894,0 -23.8742,10.6848 -23.8742,23.8742 0,13.1894 10.6848,23.8741 23.8742,23.8741 z"
   class="st3"
   id="path78_8_" />
<path
   style="fill:none;stroke:#00ff00;stroke-width:1.77630734;stroke-miterlimit:13.33329964;stroke-opacity:1"
   inkscape:connector-curvature="0"
   d="m 1840.7978,12.825274 c 0,-6.5946998 -5.3424,-11.9370998 -11.9371,-11.9370998 h -71.6092 c -6.5947,0 -11.9371,5.3424 -11.9371,11.9370998 v 44.3511 33.6396 322.914096"
   class="st1"
   id="path4812_7_" /><path
   style="fill:none;stroke:#0000ff;stroke-width:1.77630734;stroke-miterlimit:13.33329964;stroke-opacity:1"
   inkscape:connector-curvature="0"
   d="m 1745.3277,413.73007 v 379.3088"
   class="st2"
   id="path4810_7_" /><path
   style="fill:none;stroke:#00ff00;stroke-width:1.77630734;stroke-miterlimit:13.33329964;stroke-opacity:1"
   inkscape:connector-curvature="0"
   d="m 1745.3277,793.03887 v 320.10313 47.7484 161.8167 c 0,6.5947 5.3424,11.9371 11.9371,11.9371 h 71.6092 c 6.5947,0 11.9371,-5.3424 11.9371,-11.9371"
   class="st1"
   id="path22_13_" /><path
   style="fill:none;stroke:#00ffee;stroke-width:1.77630734;stroke-miterlimit:13.33329964;stroke-opacity:1"
   inkscape:connector-curvature="0"
   d="m 1819.1259,1304.7882 v 5.9685 h -52.113 v -5.9685 z"
   class="st0"
   id="path24_7_"
   sodipodi:nodetypes="ccccc" /><path
   style="fill:none;stroke:#00ffee;stroke-width:1.77630734;stroke-miterlimit:13.33329964;stroke-opacity:1"
   inkscape:connector-curvature="0"
   d="m 1819.1259,24.762374 v 5.9685 h -52.113 v -5.9685 z"
   class="st0"
   id="path34_7_"
   sodipodi:nodetypes="ccccc" /><path
   style="fill:none;stroke:#ff0000;stroke-width:1.77630734;stroke-miterlimit:13.33329964;stroke-opacity:1"
   inkscape:connector-curvature="0"
   d="m 1793.0627,1004.3627 c 13.1761,0 23.8742,-10.68483 23.8742,-23.87423 0,-13.1894 -10.6847,-23.8742 -23.8742,-23.8742 -13.176,0 -23.8741,10.6848 -23.8741,23.8742 0,13.1894 10.6981,23.87423 23.8741,23.87423 z"
   class="st3"
   id="path38_7_" /><path
   style="fill:none;stroke:#ff0000;stroke-width:1.77630734;stroke-miterlimit:13.33329964;stroke-opacity:1"
   inkscape:connector-curvature="0"
   d="m 1793.0627,879.27637 c 13.1761,0 23.8742,-10.6848 23.8742,-23.8742 0,-13.1761 -10.6847,-23.8742 -23.8742,-23.8742 -13.176,0 -23.8741,10.6848 -23.8741,23.8742 0,13.1761 10.6981,23.8742 23.8741,23.8742 z"
   class="st3"
   id="path46_7_" /><path
   style="fill:none;stroke:#ff0000;stroke-width:1.77630734;stroke-miterlimit:13.33329964;stroke-opacity:1"
   inkscape:connector-curvature="0"
   d="m 1793.0627,754.19007 c 13.1761,0 23.8742,-10.6847 23.8742,-23.8741 0,-13.1894 -10.6847,-23.8742 -23.8742,-23.8742 -13.176,0 -23.8741,10.6848 -23.8741,23.8742 0,13.1761 10.6981,23.8741 23.8741,23.8741 z"
   class="st3"
   id="path54_7_" /><path
   style="fill:none;stroke:#ff0000;stroke-width:1.77630734;stroke-miterlimit:13.33329964;stroke-opacity:1"
   inkscape:connector-curvature="0"
   d="m 1793.0627,629.09057 c 13.1761,0 23.8742,-10.6848 23.8742,-23.8742 0,-13.1894 -10.6847,-23.8742 -23.8742,-23.8742 -13.176,0 -23.8741,10.6848 -23.8741,23.8742 0,13.1894 10.6981,23.8742 23.8741,23.8742 z"
   class="st3"
   id="path62_7_" /><path
   style="fill:none;stroke:#ff0000;stroke-width:1.77630734;stroke-miterlimit:13.33329964;stroke-opacity:1"
   inkscape:connector-curvature="0"
   d="m 1793.0627,504.00427 c 13.1761,0 23.8742,-10.6847 23.8742,-23.8742 0,-13.1894 -10.6847,-23.8741 -23.8742,-23.8741 -13.176,0 -23.8741,10.6847 -23.8741,23.8741 0,13.1761 10.6981,23.8742 23.8741,23.8742 z"
   class="st3"
   id="path70_7_" /><path
   style="fill:none;stroke:#ff0000;stroke-width:1.77630734;stroke-miterlimit:13.33329964;stroke-opacity:1"
   inkscape:connector-curvature="0"
   d="m 1793.0627,378.90467 c 13.1761,0 23.8742,-10.6847 23.8742,-23.8741 0,-13.1894 -10.6847,-23.8742 -23.8742,-23.8742 -13.176,0 -23.8741,10.6848 -23.8741,23.8742 0,13.1894 10.6981,23.8741 23.8741,23.8741 z"
   class="st3"
   id="path78_7_" />
<path
   style="fill:none;stroke:#00ff00;stroke-width:1.77630734;stroke-miterlimit:13.33329964;stroke-opacity:1"
   inkscape:connector-curvature="0"
   d="m 1745.3277,12.825274 c 0,-6.5946998 -5.3423,-11.9370998 -11.9371,-11.9370998 h -71.6091 c -6.5947,0 -11.9371,5.3424 -11.9371,11.9370998 v 44.3511 33.6396 322.914096"
   class="st1"
   id="path4812_6_" /><path
   style="fill:none;stroke:#00ffee;stroke-width:1.77630734;stroke-miterlimit:13.33329964;stroke-opacity:1"
   inkscape:connector-curvature="0"
   d="m 1649.8444,413.73007 v 379.3088"
   class="st0"
   id="path4810_6_" /><path
   style="fill:none;stroke:#00ff00;stroke-width:1.77630734;stroke-miterlimit:13.33329964;stroke-opacity:1"
   inkscape:connector-curvature="0"
   d="m 1649.8444,793.03887 v 320.10313 47.7484 161.8167 c 0,6.5947 5.3424,11.9371 11.9371,11.9371 h 71.6091 c 6.5948,0 11.9371,-5.3424 11.9371,-11.9371"
   class="st1"
   id="path22_11_" /><path
   style="fill:none;stroke:#00ffee;stroke-width:1.77630734;stroke-miterlimit:13.33329964;stroke-opacity:1"
   inkscape:connector-curvature="0"
   d="m 1723.6426,1304.7882 v 5.9685 h -52.1131 v -5.9685 z"
   class="st0"
   id="path24_6_"
   sodipodi:nodetypes="ccccc" /><path
   style="fill:none;stroke:#00ffee;stroke-width:1.77630734;stroke-miterlimit:13.33329964;stroke-opacity:1"
   inkscape:connector-curvature="0"
   d="m 1723.6426,24.762374 v 5.9685 h -52.1131 v -5.9685 z"
   class="st0"
   id="path34_6_"
   sodipodi:nodetypes="ccccc" /><path
   style="fill:none;stroke:#ff0000;stroke-width:1.77630734;stroke-miterlimit:13.33329964;stroke-opacity:1"
   inkscape:connector-curvature="0"
   d="m 1697.5794,1004.3627 c 13.1761,0 23.8742,-10.68483 23.8742,-23.87423 0,-13.1894 -10.6848,-23.8742 -23.8742,-23.8742 -13.1894,0 -23.8742,10.6848 -23.8742,23.8742 0,13.1894 10.6981,23.87423 23.8742,23.87423 z"
   class="st3"
   id="path38_6_" /><path
   style="fill:none;stroke:#ff0000;stroke-width:1.77630734;stroke-miterlimit:13.33329964;stroke-opacity:1"
   inkscape:connector-curvature="0"
   d="m 1697.5794,879.27637 c 13.1761,0 23.8742,-10.6848 23.8742,-23.8742 0,-13.1761 -10.6848,-23.8742 -23.8742,-23.8742 -13.1894,0 -23.8742,10.6848 -23.8742,23.8742 0,13.1761 10.6981,23.8742 23.8742,23.8742 z"
   class="st3"
   id="path46_6_" /><path
   style="fill:none;stroke:#ff0000;stroke-width:1.77630734;stroke-miterlimit:13.33329964;stroke-opacity:1"
   inkscape:connector-curvature="0"
   d="m 1697.5794,754.19007 c 13.1761,0 23.8742,-10.6847 23.8742,-23.8741 0,-13.1894 -10.6848,-23.8742 -23.8742,-23.8742 -13.1894,0 -23.8742,10.6848 -23.8742,23.8742 0,13.1761 10.6981,23.8741 23.8742,23.8741 z"
   class="st3"
   id="path54_6_" /><path
   style="fill:none;stroke:#ff0000;stroke-width:1.77630734;stroke-miterlimit:13.33329964;stroke-opacity:1"
   inkscape:connector-curvature="0"
   d="m 1697.5794,629.09057 c 13.1761,0 23.8742,-10.6848 23.8742,-23.8742 0,-13.1894 -10.6848,-23.8742 -23.8742,-23.8742 -13.1894,0 -23.8742,10.6848 -23.8742,23.8742 0,13.1894 10.6981,23.8742 23.8742,23.8742 z"
   class="st3"
   id="path62_6_" /><path
   style="fill:none;stroke:#ff0000;stroke-width:1.77630734;stroke-miterlimit:13.33329964;stroke-opacity:1"
   inkscape:connector-curvature="0"
   d="m 1697.5794,504.00427 c 13.1761,0 23.8742,-10.6847 23.8742,-23.8742 0,-13.1894 -10.6848,-23.8741 -23.8742,-23.8741 -13.1894,0 -23.8742,10.6847 -23.8742,23.8741 0,13.1761 10.6981,23.8742 23.8742,23.8742 z"
   class="st3"
   id="path70_6_" /><path
   style="fill:none;stroke:#ff0000;stroke-width:1.77630734;stroke-miterlimit:13.33329964;stroke-opacity:1"
   inkscape:connector-curvature="0"
   d="m 1697.5794,378.90467 c 13.1761,0 23.8742,-10.6847 23.8742,-23.8741 0,-13.1894 -10.6848,-23.8742 -23.8742,-23.8742 -13.1894,0 -23.8742,10.6848 -23.8742,23.8742 0,13.1894 10.6981,23.8741 23.8742,23.8741 z"
   class="st3"
   id="path78_6_" />
</svg>