<?xml version="1.0" encoding="UTF-8" standalone="no"?>
<!-- Created with Inkscape (http://www.inkscape.org/) -->

<svg
   xmlns:dc="http://purl.org/dc/elements/1.1/"
   xmlns:cc="http://creativecommons.org/ns#"
   xmlns:rdf="http://www.w3.org/1999/02/22-rdf-syntax-ns#"
   xmlns:svg="http://www.w3.org/2000/svg"
   xmlns="http://www.w3.org/2000/svg"
   xmlns:sodipodi="http://sodipodi.sourceforge.net/DTD/sodipodi-0.dtd"
   xmlns:inkscape="http://www.inkscape.org/namespaces/inkscape"
   version="1.1"
   id="svg2"
   xml:space="preserve"
   width="13.057192in"
   height="10.264052in"
   viewBox="0 0 1253.4904 985.34902"
   sodipodi:docname="visiere finiale.svg"
   inkscape:version="0.92.1 r15371"><metadata
     id="metadata8"><rdf:RDF><cc:Work
         rdf:about=""><dc:format>image/svg+xml</dc:format><dc:type
           rdf:resource="http://purl.org/dc/dcmitype/StillImage" /><dc:title></dc:title></cc:Work></rdf:RDF></metadata><defs
     id="defs6"><clipPath
       clipPathUnits="userSpaceOnUse"
       id="clipPath18"><path
         d="M 0,918 H 900 V 0 H 0 Z"
         id="path16"
         inkscape:connector-curvature="0" /></clipPath></defs><sodipodi:namedview
     pagecolor="#ffffff"
     bordercolor="#666666"
     borderopacity="1"
     objecttolerance="10"
     gridtolerance="10"
     guidetolerance="10"
     inkscape:pageopacity="0"
     inkscape:pageshadow="2"
     inkscape:window-width="1920"
     inkscape:window-height="1017"
     id="namedview4"
     showgrid="false"
     inkscape:zoom="0.38562092"
     inkscape:cx="598.42803"
     inkscape:cy="782.41194"
     inkscape:window-x="-8"
     inkscape:window-y="-8"
     inkscape:window-maximized="1"
     inkscape:current-layer="g10"
     units="in"
     showguides="true"
     inkscape:guide-bbox="true"
     inkscape:measure-start="865.499,840.286"
     inkscape:measure-end="887.503,-7.33473" /><g
     id="g10"
     inkscape:groupmode="layer"
     inkscape:label="PROTO-SHIELD_MASK_V1-2"
     transform="matrix(1.3333333,0,0,-1.3333333,-1619.9496,1210.3944)"><path
       d="m 2126.0803,907.29596 c 15.7399,0 28.5,-12.582 28.5,-28.104 l -18.83,-569.39002 c 0,-77.606 -63.799,-140.518 -142.5001,-140.518 h -616.6181 c -78.701,0 -142.5,62.912 -142.5,140.518 l -18.67,569.39002 c 0,15.522 12.76,28.104 28.5,28.104 z"
       style="fill:none;stroke:#ff1e00;stroke-width:0.75;stroke-linecap:butt;stroke-linejoin:miter;stroke-miterlimit:10;stroke-dasharray:none;stroke-opacity:1"
       id="path5326"
       inkscape:connector-curvature="0"
       sodipodi:nodetypes="sccssccss" /><path
       d="m 1596.6721,798.94704 c -4.328,0 -7.838,3.509 -7.838,7.837 0,4.329 3.51,7.838 7.838,7.838 h 5.699 c 4.33,0 7.838,-3.509 7.838,-7.838 0,-4.328 -3.508,-7.837 -7.838,-7.837 z"
       style="fill:none;stroke:#ff1e00;stroke-width:0.75;stroke-linecap:butt;stroke-linejoin:miter;stroke-miterlimit:10;stroke-dasharray:none;stroke-opacity:1"
       id="path5328"
       inkscape:connector-curvature="0" /><path
       d="m 1773.3708,798.94704 h -5.699 c -4.327,0 -7.838,3.509 -7.838,7.837 0,4.329 3.511,7.838 7.838,7.838 h 5.699 c 4.328,0 7.838,-3.509 7.838,-7.838 0,-4.328 -3.51,-7.837 -7.838,-7.837 z"
       style="fill:none;stroke:#ff1e00;stroke-width:0.75;stroke-linecap:butt;stroke-linejoin:miter;stroke-miterlimit:10;stroke-dasharray:none;stroke-opacity:1"
       id="path5330"
       inkscape:connector-curvature="0" /><path
       d="m 1992.822,814.62184 h 5.699 c 4.328,0 7.838,-3.509 7.838,-7.838 0,-4.328 -3.51,-7.837 -7.838,-7.837 h -5.699 c -4.33,0 -7.838,3.509 -7.838,7.837 0,4.329 3.508,7.838 7.838,7.838 z"
       style="fill:none;stroke:#ff1e00;stroke-width:0.75;stroke-linecap:butt;stroke-linejoin:miter;stroke-miterlimit:10;stroke-dasharray:none;stroke-opacity:1"
       id="path5332"
       inkscape:connector-curvature="0" /><path
       d="m 1377.2209,814.62184 c 4.33,0 7.838,-3.509 7.838,-7.838 0,-4.328 -3.508,-7.837 -7.838,-7.837 h -5.699 c -4.328,0 -7.838,3.509 -7.838,7.837 0,4.329 3.51,7.838 7.838,7.838 z"
       style="fill:none;stroke:#ff1e00;stroke-width:0.75;stroke-linecap:butt;stroke-linejoin:miter;stroke-miterlimit:10;stroke-dasharray:none;stroke-opacity:1"
       id="path5334"
       inkscape:connector-curvature="0" /><path
       inkscape:connector-curvature="0"
       id="path5336"
       style="fill:none;stroke:#ff1e00;stroke-width:0.75;stroke-linecap:butt;stroke-linejoin:miter;stroke-miterlimit:10;stroke-dasharray:none;stroke-opacity:1"
       d="m 1249.6618,814.62184 c 4.33,0 7.838,-3.509 7.838,-7.838 0,-4.328 -3.508,-7.837 -7.838,-7.837 h -5.699 c -4.328,0 -7.838,3.509 -7.838,7.837 0,4.329 3.51,7.838 7.838,7.838 z"
       sodipodi:nodetypes="sssssss" /><path
       inkscape:connector-curvature="0"
       id="path5338"
       style="fill:none;stroke:#ff1e00;stroke-width:0.75;stroke-linecap:butt;stroke-linejoin:miter;stroke-miterlimit:10;stroke-dasharray:none;stroke-opacity:1"
       d="m 2120.3811,814.62184 h 5.699 c 4.328,0 7.8379,-3.509 7.8379,-7.838 0,-4.328 -3.5099,-7.837 -7.8379,-7.837 h -5.699 c -4.33,0 -7.838,3.509 -7.838,7.837 0,4.329 3.508,7.838 7.838,7.838 z"
       sodipodi:nodetypes="sssssss" /></g></svg>