<?xml version="1.0" encoding="UTF-8" standalone="no"?>
<!-- Created with Inkscape (http://www.inkscape.org/) -->

<svg
   xmlns:dc="http://purl.org/dc/elements/1.1/"
   xmlns:cc="http://creativecommons.org/ns#"
   xmlns:rdf="http://www.w3.org/1999/02/22-rdf-syntax-ns#"
   xmlns:svg="http://www.w3.org/2000/svg"
   xmlns="http://www.w3.org/2000/svg"
   xmlns:sodipodi="http://sodipodi.sourceforge.net/DTD/sodipodi-0.dtd"
   xmlns:inkscape="http://www.inkscape.org/namespaces/inkscape"
   version="1.1"
   id="svg2"
   xml:space="preserve"
   width="1978.5524"
   height="1369.4695"
   viewBox="0 0 1978.5524 1369.4695"
   sodipodi:docname="visiere finiale.svg"
   inkscape:version="0.92.1 r15371"><metadata
     id="metadata8"><rdf:RDF><cc:Work
         rdf:about=""><dc:format>image/svg+xml</dc:format><dc:type
           rdf:resource="http://purl.org/dc/dcmitype/StillImage" /><dc:title></dc:title></cc:Work></rdf:RDF></metadata><defs
     id="defs6"><clipPath
       clipPathUnits="userSpaceOnUse"
       id="clipPath18"><path
         d="M 0,918 H 900 V 0 H 0 Z"
         id="path16"
         inkscape:connector-curvature="0" /></clipPath></defs><sodipodi:namedview
     pagecolor="#ffffff"
     bordercolor="#666666"
     borderopacity="1"
     objecttolerance="10"
     gridtolerance="10"
     guidetolerance="10"
     inkscape:pageopacity="0"
     inkscape:pageshadow="2"
     inkscape:window-width="1920"
     inkscape:window-height="1017"
     id="namedview4"
     showgrid="false"
     inkscape:zoom="0.54535033"
     inkscape:cx="884.65082"
     inkscape:cy="767.28841"
     inkscape:window-x="-8"
     inkscape:window-y="-8"
     inkscape:window-maximized="1"
     inkscape:current-layer="g10" /><g
     id="g10"
     inkscape:groupmode="layer"
     inkscape:label="PROTO-SHIELD_MASK_V1-2"
     transform="matrix(1.3333333,0,0,-1.3333333,-107.32548,1370.0394)"><g
       id="g6237"
       transform="translate(204.21611,11.66949)"><path
         d="m 891.05905,882.01202 c 15.74,0 28.5,-12.582 28.5,-28.104 l -18.83,-569.39002 c 0,-77.606 -63.799,-140.518 -142.5,-140.518 H 141.61094 C 62.909942,144 -0.8890579,206.912 -0.8890579,284.518 L -19.559058,853.90802 c 0,15.522 12.7600001,28.104 28.5000001,28.104 z"
         style="fill:none;stroke:#ff1e00;stroke-width:0.99975002;stroke-linecap:butt;stroke-linejoin:miter;stroke-miterlimit:10;stroke-dasharray:none;stroke-opacity:1"
         id="path50"
         inkscape:connector-curvature="0"
         sodipodi:nodetypes="sccssccss" /><path
         d="m 361.6509,773.6631 c -4.328,0 -7.838,3.509 -7.838,7.837 0,4.329 3.51,7.838 7.838,7.838 h 5.699 c 4.33,0 7.838,-3.509 7.838,-7.838 0,-4.328 -3.508,-7.837 -7.838,-7.837 z"
         style="fill:none;stroke:#ff1e00;stroke-width:0.99975002;stroke-linecap:butt;stroke-linejoin:miter;stroke-miterlimit:10;stroke-dasharray:none;stroke-opacity:1"
         id="path54"
         inkscape:connector-curvature="0" /><path
         d="m 538.3496,773.6631 h -5.699 c -4.327,0 -7.838,3.509 -7.838,7.837 0,4.329 3.511,7.838 7.838,7.838 h 5.699 c 4.328,0 7.838,-3.509 7.838,-7.838 0,-4.328 -3.51,-7.837 -7.838,-7.837 z"
         style="fill:none;stroke:#ff1e00;stroke-width:0.99975002;stroke-linecap:butt;stroke-linejoin:miter;stroke-miterlimit:10;stroke-dasharray:none;stroke-opacity:1"
         id="path58"
         inkscape:connector-curvature="0" /><path
         d="m 757.8008,789.3379 h 5.699 c 4.328,0 7.838,-3.509 7.838,-7.838 0,-4.328 -3.51,-7.837 -7.838,-7.837 h -5.699 c -4.33,0 -7.838,3.509 -7.838,7.837 0,4.329 3.508,7.838 7.838,7.838 z"
         style="fill:none;stroke:#ff1e00;stroke-width:0.99975002;stroke-linecap:butt;stroke-linejoin:miter;stroke-miterlimit:10;stroke-dasharray:none;stroke-opacity:1"
         id="path62"
         inkscape:connector-curvature="0" /><path
         d="m 142.1997,789.3379 c 4.33,0 7.838,-3.509 7.838,-7.838 0,-4.328 -3.508,-7.837 -7.838,-7.837 h -5.699 c -4.328,0 -7.838,3.509 -7.838,7.837 0,4.329 3.51,7.838 7.838,7.838 z"
         style="fill:none;stroke:#ff1e00;stroke-width:0.99975002;stroke-linecap:butt;stroke-linejoin:miter;stroke-miterlimit:10;stroke-dasharray:none;stroke-opacity:1"
         id="path66"
         inkscape:connector-curvature="0" /><path
         inkscape:connector-curvature="0"
         id="path6080"
         style="fill:none;stroke:#ff1e00;stroke-width:0.99975002;stroke-linecap:butt;stroke-linejoin:miter;stroke-miterlimit:10;stroke-dasharray:none;stroke-opacity:1"
         d="m 14.640642,789.3379 c 4.33,0 7.838,-3.509 7.838,-7.838 0,-4.328 -3.508,-7.837 -7.838,-7.837 H 8.9416421 c -4.328,0 -7.838,3.509 -7.838,7.837 0,4.329 3.51,7.838 7.838,7.838 z"
         sodipodi:nodetypes="sssssss" /><path
         inkscape:connector-curvature="0"
         id="path6082"
         style="fill:none;stroke:#ff1e00;stroke-width:0.99975002;stroke-linecap:butt;stroke-linejoin:miter;stroke-miterlimit:10;stroke-dasharray:none;stroke-opacity:1"
         d="m 885.35985,789.3379 h 5.699 c 4.328,0 7.838,-3.509 7.838,-7.838 0,-4.328 -3.51,-7.837 -7.838,-7.837 h -5.699 c -4.33,0 -7.838,3.509 -7.838,7.837 0,4.329 3.508,7.838 7.838,7.838 z"
         sodipodi:nodetypes="sssssss" /></g></g></svg>